<svg xmlns="http://www.w3.org/2000/svg" width="436" height="629" class="main-map__map"><g class="main-map__map-locations"><path d="m224.797 492.07-2.518.517 1.677.62.526 1.447s-1.154 1.24-1.469 1.342c-.315.107-1.366-.619-1.366-.619l-1.151.726.104 1.031s.523.932.734 1.345c.209.414.524.827.734 1.446.211.621.945 1.655 1.154 2.276.21.619-.209 1.449-.313 1.755-.106.312-.736.83-1.156.931-.419.105-.315-1.033-.106-1.55.21-.517-.732-1.342-.943-1.653-.208-.31.102-.619-.104-1.344-.21-.723-.84-1.034-1.156-1.24-.315-.207-.734-.413-1.258-.105a1.631 1.631 0 0 1-1.681 0c-.524-.308-1.052-.929-1.469-1.033-.421-.102-1.26-.102-2.098-.207-.839-.104-1.364-.723-1.68-.827-.314-.104-1.153 0-1.153 0s-.734 1.138-.947 1.55c-.209.415-1.258.932-1.258.932l-1.784.413-.945 1.242s-1.89.1-2.205.1c-.315 0-.838.52-1.575.932-.732.412-1.047-.723-1.047-.723s-.736.104-1.575.104c-.838 0-1.47-.932-1.47-.932s-2.414-1.136-2.937-1.446a12.691 12.691 0 0 0-1.682-.828c-.526-.206-1.047-.31-1.362-.104-.315.206-.947.725-.947.725s-1.784-1.138-2.099-1.448c-.315-.31-1.15-.104-1.575-.206-.417-.105-.942-.828-.942-.828s-.42.517-.945.828c-.526.308-1.68-.415-2.203-.517-.526-.105-.63-.105-1.367-.207-.732-.104-.312-1.033.105-2.273.421-1.24-.63-.621-1.258-.83-.63-.204.943-1.342.943-1.342l1.47-1.24s2.52-.621 3.15-.621c.63 0 1.784-.723 1.784-.723l.42-1.549s.84-1.036.944-1.344c.104-.31 1.052-1.861 1.364-2.07.315-.206 1.786 1.034 1.992 1.345.211.31 1.367.725 1.471 1.033.107.31 1.156.723 1.156.723l1.68.415s1.785-.725 2.098-.827c.315-.104.945-.104 1.26-.104.315 0 1.468.31 1.887.516.422.207 1.26-.206 1.26-.206l2.099-.825c1.051-.415.945.515 1.681.72.733.21.628.518.943 1.139.315.621.735.519.735.519h1.575l.84-1.449.63-.516s.63-1.034.63-1.449c0-.41.315-1.24.315-1.24l1.258-.206s.84-.62 1.156-.724c.313-.104.521-.931.521-.931l.839-.93.213-1.55 1.342-.799c-.173.233.01.453.11.81.04.133.05.286.067.437.018.284.162.133.333.301.075.078.268.225.366.287.195.13.164.583.182.778.013.144.04.262.06.364.044.193.073.337.009.53-.098.324-.225 2.31.135 2.671.195.193.914 1.413 1.344 2.14.16.271.293.493.364.609.22.357.424.594.639.845.073.084.146.168.224.262a4.4 4.4 0 0 0 .38.403c.223.22.43.426.51.65.166.435.605 1.03 1.05 1.114.094.018.391.286.473.288.304 0 .826.249.985.144l-.177.26Z" data-title="Brecon Beacons" class="main-map__map-location" fill="#24623E"></path><path d="M433.17 427.786c.115.66.141 1.071.132 1.33l-2.247 1.278-1.016.504-1.016.699-.814 1.506-.51.998 1.018.501.61 1.005 1.325-.202.914 1.602.303.803-.51 1-1.726.702-1.628.5-1.12-.4-1.728.4-1.424.702-1.12-.597-1.223.1-1.32.297h-1.732s-.812-.1-.404-.803c.404-.696.508-1.202.814-1.302.304-.098.506-.3 1.016-.2.508.102.916.102 1.222-.1.302-.197.712-.299 1.118-.197.406.1.508.4 1.016.297.51-.1 1.427-.297 1.935-.6.51-.3.51-.5.914-.3.406.2 1.628.8 1.934.501.306-.302.406-.7.406-.7l-2.544-1.603-.1-1.202-1.626.5s-.104-.5-.51-.302c-.409.2-1.118.399-1.118.399s-2.24.401-2.443.102c-.204-.302-.406-.699 0-1.003.406-.301.916-.7.916-.7s.61-.198.506-.5c-.102-.302-.71-.903-.71-.903l-1.526-.1s-.712-.803-.508-1.202c.202-.401 0-.803-.308-.803-.304 0-.812 0-.912.402-.104.401-.508.9-.814.603-.308-.302-.814-.504-.918-.905-.1-.4-.304-.803-.608-.601-.306.202-.613.7-.613.7s-.811.103-1.016-.396c-.206-.506-.61-.806-.61-.806s-1.526-.7-1.018-1c.508-.302.612-.5 1.22-.599.613-.1 1.223.197 1.424.5.205.299.307.503.812.197.513-.3.207-.697.819-.3.608.402.814.606 1.116.606.306 0 .51-.105.916-.404.408-.302.712-.402.916 0 .202.404.302.603.814.603.508 0 1.12.298 1.12.298s.302.201.61.6c.307.404.914.804.914.804l1.223.703s.017-.058.017-.357c0-.297.435-.422.125-.623a.818.818 0 0 1-.346-.526l-.712-.601s.505-.701.505-1c0-.303-.202-1.103-.301-1.403-.102-.302-.717-.703-.717-.703s0-.402-.401.1c-.409.501.1 1.703-.715.903-.814-.799-.712-1.003-1.118-1.305-.408-.3-.508-.3-.816-.596-.304-.304-1.422-.906-1.422-.906h-1.22l-.41.2-.608.604s-.916 0-.916-.302-.307-1.804.306-1.901c.61-.102.71-.504.406-.606-.304-.1-.61-.597-.61-.597s.406-.503.914-.503 1.018.401 1.018.401.306.5.814.5.712.401 1.018 0c.304-.398.204-.398.508-.702.302-.299 1.424-.898 1.424-.898s.712-.404-.102-.803c-.812-.4-1.728-.803-1.526-1.102.204-.3.102-.701.102-1.005v-.7s.204-.997.612-1.201c.406-.2.71-.502.914-.098.204.397-.102 1.198.612 1.7.71.5 1.323.904 1.524 1.304.205.401.409.401.307.902-.102.5-.205 1.003-.205 1.3 0 .302 0 1.502.406 1.502.409 0 1.427-.1 1.427-.1s.508-.497 0-.497-.712 0-.916-.304c-.207-.299-.309-.698 0-.898.304-.204.71-.302.71-.606 0-.299-.202-.696-.202-.696l-.917-1.003s-.102-.803.202-.905c.309-.1.615-.4.916-.197.307.197 1.325 1.3 1.325 1.3l.71.1.408-.855c.756.457 2.438 2.347 3.227 3.301 0 0-1.293.36-.887.763.408.397.714.799.714.799l-.204 1.003.038 1.595v.554l1.012.222 1.606-.235c.075.129.235.51.308.674l.572 1.995h.001Z" data-title="Broads" class="main-map__map-location" fill="#24623E"></path><path d="m197.146 140.685-2.942-.341s-1.56.683-2.602 1.366c-1.036.681-1.211 0-1.903.34-.692.341-.52 1.537-.52 1.537l-3.637-.683-4.504-.855s-.35-.68-.519-1.535c-.175-.854-1.561-.17-2.602-.17-1.036 0-1.209-.513-2.249-.854-1.04-.34-1.908-1.023-3.119-1.363-1.213-.343-.692.34-1.384 1.023-.695.681-1.564-.683-2.6-1.366-1.04-.681.694-4.947.694-4.947s1.387-.854 1.906-1.367c.517-.51.692-.85.346-1.703-.346-.854-1.216-.854-2.079-.684-.867.171-1.215.684-1.734.684-.52 0-1.212.341-2.598.51-1.384.173-.348-2.729-.865-2.9-.52-.17-1.214-.683-1.038-1.195.168-.51 1.21-1.533 1.21-1.533s2.08-2.39 2.252-2.901c.173-.513 1.906-1.877 2.773-2.558.863-.686 1.733-.344 1.733-.344l1.557-1.194s4.503-1.022 5.195-1.193c.695-.17 2.079-.342 2.602-.342.52 0 .863-.341 1.382-1.705.524-1.367 1.043-.681 1.56-.855.519-.17 1.905-.341 1.905-.341s.176-1.533-.17-2.045c-.349-.513-1.56-.854-1.56-.854s-.692-2.731-.867-3.754c-.175-1.022 4.157-3.412 4.851-3.753.692-.342 2.252-1.538 2.252-1.538l2.773.684 1.56-.342 1.037-.68.517-1.194 2.773-1.025.692 1.708s1.216-.17 2.079-.515c.87-.34.521.173.521.854s.694.852.694.852 1.733.342 2.425.342c.692 0 1.211.512 1.56 1.366.343.852 3.291 3.07 3.291 3.07l2.423-.512 1.562 1.366s2.595.169 3.981.34c1.387.17 1.387 1.877 2.254 3.072.868 1.194 1.387 4.947 1.387 4.947l-2.081 1.537 4.16 2.216 1.383 2.219s1.906 1.535 2.252 2.216c.344.685-.346 2.047-1.213 2.901-.866.854.348 1.367.348 2.048 0 .683-.521.854-1.387.854-.865 0-1.213-1.535-1.213-1.535s-.692.51-1.038 1.193c-.346.684.692 2.39.692 2.902 0 .51.521 3.753-.173 4.776-.692 1.022-1.387-.171-2.946-.681-1.557-.513-1.386-.342-1.386-.342s-.517 1.533-.517 2.045c0 .513-1.733 1.025-1.733 1.025h-1.735s-.516 1.706-1.035 2.39c-.524.68-.87.51-2.6.51-1.735 0-1.04-.169-1.385-.681-.35-.513-.87-1.538-.87-1.538s-2.25.684-2.94.513c-.693-.171-.522.854-.868 1.706-.348.854-1.216 1.537-1.735 1.708-.517.168-.517-1.367-.692-2.048-.17-.683-3.982-2.22-3.982-2.22l-1.561 1.366Z" data-title="Cairngorms" class="main-map__map-location" fill="#24623E"></path><path d="m196.283 581.6.545 1.07.362 1.608-1.269 1.786-2.176 1.429s-.364 1.071-.544 1.608c-.181.535-.363.712-1.086 1.247-.728.539.18 1.608.18 1.608l-.362 1.249s-1.451.716-2.356 1.251c-.908.535-.908.648-1.223 1.39-.315.744-2.222.218-2.222.218l-2.358-.894s-.888-1.018-1.449-1.785c-.563-.766-.364-1.606-.364-1.606s-1.548 1.262-2.012 1.555c-.461.295-1.785-1.33-1.785-1.33l-1.125-.909.752-1.994s-1.45-.537-1.994-.714c-.544-.18 0-1.251 0-1.251l.907-1.429v-1.963c0-1.254-.907-1.786-1.45-2.5-.544-.715-.183-.894-.183-.894s.908-.892 1.633-1.25c.723-.356.905-.711 1.448-1.428.544-.714 1.997-4.463 2.54-4.82.544-.357 1.995-1.072 1.995-1.072l1.81-.534s2.722.355 3.265.534c.544.18.726.18 1.09.892.361.715.725.357 1.268.357.544 0 1.63 0 2.356-.714l2.356.714 1.45 1.784 2.54 1.788.18 3.749-2.72 1.25h.001Z" data-title="Dartmoor" class="main-map__map-location" fill="#24623E"></path><path d="M196.174 536.27c-1.063.015-2.145-.016-3.27-.249-1.513-.306-2.817-.845-4.341-.785a3.738 3.738 0 0 0-.402.029c-.354.053-.337.042-.598.084-.457.082-.892.18-1.323.275-.457.098-.734.184-1.184.213-.2.016-.328.062-.61.078-.23.018-.466.029-.708.022-.2-.011-.4-.013-.597-.013-.157.148-.323.321-.547.439-.457.262-1.238.095-1.664.06l-2.75.308-.6 1.972 2.8.79-.2 1.378 1.801.785 1.999.987 1.2 1.38.8 2.955 1.802.392 1.2 1.775 3.201 1.575 3.002.79 2.198.195 2.802.197 2.2 1.577.601-1.182 2.802.592.4-1.772 1.2-1.182.197-1.575 1.202-.595 2.001.197h2.001l1.6-1.18-.602-1.382-1.996-2.56-2.003.196-1.2-.588-1.003-1.775-1.127-1.708c-.26.016-.408-.064-.566-.209-.157-.148-.33-.357-.638-.598a7.039 7.039 0 0 1-.488-.43 17.468 17.468 0 0 1-1.773-.693c-1.67-.765-3.283-.843-4.913-.81" data-title="Exmoor" class="main-map__map-location" fill="#24623E"></path><path d="m237.711 303.271.023.09-.082.905v2.557l.237 2.323-1.65 1.628-2.595 1.859 1.65 2.556-2.833 2.324 1.182 3.483-1.182 1.859-.938.399c.031-.804-.045-1.586-.406-2.224-1.358-2.394-2.935.348-3.78 1.59-.195.29-.387.535-.577.747l-.197-.048-.945-2.09-3 1.296-.776-2.922-3.066.929-2.123-1.623-2.595-.468-.231.614c-.27.12-.406.91-.434 1.142a3.794 3.794 0 0 1-.085.288c-.002.336.014.664-.106 1.01-.162.448-.437.812-.857 1.058-1.861 1.056-2.866-.028-3.646-1.388.046.06.088.113.128.153l-.376-.499-.58-1.103-.541-1.085-.442-.61s-.559-.579-.594-.645c-.033-.071-.41-.916-.41-.916l-.14-.415-.706-3.454.763-.657 1.648-1.626-1.41-1.856-.947-2.325 1.182-3.022-1.65-1.628s-.708-.694 0-.927c.703-.233 3.063-.233 3.063-.233l-.238-3.252 1.42-1.861v-2.089l1.886-.7v-.926l-.943-.7 3.303-3.715h2.358l2.833-1.165 1.413.932 2.836-1.628 2.83 1.628 1.65 1.625-.708 2.09 1.886 2.558 3.54.233 1.89.697 2.596 1.393 1.178 2.092v2.091l.472 2.09-.035.397-.002.002-.116 1.249-.025-.087a4.023 4.023 0 0 0-.086-.279 3.593 3.593 0 0 1-.086-.288c-.083-.357.041-.385.313-.595v-.002c-.273.212-.397.238-.313.597.019.078.047.172.086.288.033.102.061.193.086.279Z" data-title="Lake District" class="main-map__map-location" fill="#24623E"></path><path d="M155.526 191.877s1.557-.612 1.79-.92c.233-.309-.233-1.303-.233-2.072 0-.763-.233-1.302-.233-1.302l1.09-1.456s.855-.845 1.088-1.226c.233-.382.468-.921.701-1.072.233-.153 1.635.151 2.334.151.701 0 1.09-.229 1.324-.382.233-.153-.235-.92-.31-1.46-.08-.532.699-.458 1.089-.76.388-.31.078-.923.308-1.076.236-.153 1.014 0 1.402.075.39.078 1.245-.303 1.245-.303s-.233-1.307-.233-1.766c0-.462.233-.996.233-.996s-.932-.382-1.167-.46c-.23-.077-.31-1.228-.31-1.228s.545-.994.545-1.223c0-.23-.39-1.229-.39-1.229s.778-.692.778-1.304c0-.61 0-1.071-.077-1.455-.078-.384.466-.306.934-.306.465 0 1.945-.382 1.945-.382l.934-1.229-.155-.918s-.857-.462-1.558-.537c-.7-.078-2.258.23-3.034.306-.777.078-1.012.078-1.4 0-.39-.075-.623-.765-.779-.994-.155-.23-.7-1.46-.778-1.69-.078-.229.155-2.143.155-2.143l-1.48-.845-1.555.688-1.166-.074s-.546-.157-2.336-.228c-1.79-.08-.546.459-.546.459h-1.17c-.31 0-.853-.08-1.321 0-.466.073-.777.765-.934 1.071-.155.309-.466.537-.776.843-.313.309-.546.309-1.014.229-.466-.076-.466-.69-.388-1.225.08-.536.698-.614.778-.845.078-.23-.233-.384-.39-.612-.156-.23-.621-.92-1.322-1.071-.7-.154-1.48.69-1.713.61-.235-.074-.623.155-1.244.31-.624.151-.468.302-.779.763-.31.462.155.617-.233.998-.39.382-.934 0-.934 0s-.235.693-1.244 1.072c-1.014.386-1.014.461-1.09.69-.08.23-.235.77-.858 1.229-.621.459-.466 1.683-.466 1.683s.856.46 1.325.843c.465.389.776.54.933 1.38.156.845.076 2.15.076 2.15s-.934.153-1.4.459c-.468.306-.313.69-.313.69l-.004.029c.213-.085.44-.162.592-.249.44-.255.903-.466 1.373-.66.162-.07.524-.227.442.066-.091.357-.872.69-1.154.858-.315.187-.63.397-.967.546-.13.06-.266.109-.401.157-.14.051-.282.102-.42.156-.033.035-.084.048-.146.06-.08.035-.155.073-.23.115-.374.204-.535.503-.7.88-.2.433-.443.837-.656 1.26-.253.493-.41 1.021-.661 1.518-.222.437-.548 1.007-.936 1.315-.44.344-1.045.289-1.516.577-.417.26-.89.637-1.253.978-.845.815-1.75 1.68-2.065 2.789-.04.135-.084.27-.133.401l-.053.131a4.458 4.458 0 0 1-.105.253l-.073.151c-.035.07-.07.144-.109.213-.028.055-.057.106-.086.16-.038.06-.076.128-.116.193-.03.048-.062.102-.097.153-.038.062-.078.12-.12.177-.035.053-.07.104-.109.158-.037.055-.077.106-.115.157-.115.151-.23.297-.353.446.054.504.054 1.038.054 1.038l-.701.54-.309 1.148s-.157 1.684-.235 1.995c-.078.301.39.612.39.612l1.088.148.933.158 1.014.612s.854.23 1.09.309c.232.075 1.747.195 1.747.195 0-.178.506.237.684.41.06.06.237.162.454.277-.006-.028-.01-.06-.017-.09-.005-.03-.011-.054-.014-.083l-.01-.044c-.007-.042-.014-.09-.023-.137l-.002-.012c-.016-.106-.033-.217-.047-.33-.002-.011-.002-.018-.002-.024-.007-.05-.011-.096-.015-.142l-.003-.043c-.004-.04-.006-.082-.009-.122v-.046c-.002-.033-.002-.069-.002-.107 0-.013 0-.029.002-.048 0-.027.003-.058.005-.09 0-.013.002-.028.007-.046a.3.3 0 0 1 .013-.07.157.157 0 0 1 .009-.04c.006-.025.015-.038.022-.056.007-.013.011-.022.018-.031a.148.148 0 0 1 .033-.038c.007-.004.013-.011.022-.018.013-.006.029-.01.044-.015l.03-.002a.15.15 0 0 1 .064.017c.01.003.017.003.028.01a.446.446 0 0 1 .196.141.089.089 0 0 1 .024.029.845.845 0 0 1 .08.104c.013.02.027.045.042.067a.266.266 0 0 0 .027.046c.013.03.029.051.042.082l.024.051.038.087c.009.018.015.038.024.051.011.036.025.071.038.104.007.016.011.031.02.047.013.044.031.089.047.137a.079.079 0 0 1 .004.02c.02.054.036.107.053.162l.007.025c.013.049.029.095.042.144.005.011.007.029.011.044l.033.12c.005.018.01.031.014.051.009.036.02.073.029.113l.013.047a2.495 2.495 0 0 0 .038.148c.024.11.046.207.068.293.018.01.034.014.045.018.18.058.124-.646.155-.88.031-.231-.118-.73-.32-1.023-.208-.29-.057-.845-.057-1.085.002-.23-.022-.725-.17-.845-.152-.118-.118-.555-.232-.794-.117-.231.384-.346.622-.495.241-.142.388-.608.45-1.072.064-.468.302-.765.45-1.169.155-.408-.499-.62-.765-.851-.264-.238-.293-.528-.56-1.027-.26-.497.334-1.256.453-1.722.122-.466-.439-.967-.61-1.495-.177-.526.329-.701.504-.668.177.031.086.32.144.817.056.496.266.434.588 1.024.326.588-.12 1.052-.302 1.813-.184.763.142.845.317.967.178.118.298.382.77.328.475-.055.48-.79.6-1.053.121-.262.268-.38.476-.41.21-.025.306-1.048.481-1.543l.182-.499.453-.763 1.169-.077.623.69v1.302l-1.013.381s-.7 1.15-.855 1.38c-.157.23.544.768.7.998.155.231.31.766.31.994 0 .23-.779 1.919-.779 1.919l.235.69 1.167.923s.182.1.424.241c.004-.044.002-.09.007-.135.093-1.016.916-1.93 1.24-2.935 1.517.333.75-3.593.559-4.308-.358-1.357-1.327-4.004-.031-5.13 1.13 1.561-.04 4.585 1.31 5.982.713-1.93.899-4.259 2.028-5.996.266-.413 1.608-2.167 2.296-1.786.666.366-.694 1.793-.96 2.121-1.378 1.741-2.237 3.45-2.25 5.725-.02 1.884 1.844 3.658 2.775 5.222.076.127.16.253.244.373.022.033.042.064.067.091.084.124.175.242.27.362h.005c.097.122.197.235.306.352.024.025.049.056.075.082a17.151 17.151 0 0 0 .329.338l.35.326c.031.024.06.05.087.073.117.106.237.208.36.308l.004.002c.124.102.252.204.379.302.03.02.058.044.089.067.124.09.25.186.377.277h.002c.424-.222.865-.501.865-.501l.779-1.072" data-title="Loch Lomond &amp; The Trossachs" class="main-map__map-location" fill="#24623E"></path><path d="M296.322 568.262c.812-.273 2.569-.37 2.861-.481 1.22-.435 2.272-1.369 3.432-1.957.896-.441.435.845 1.134.091.133-.146.237-.28.317-.415.038-.166.694-.845-.898-2.063-.604-.461-1.664-1.324-2.31-2.005-.557-.586-1.781-1.54-2-1.74-.222-.203-.702-.083-.992-.154-.284-.067-.606-.417-.635-.633l-.736-.284-1.562-.28.814-5.288-3.116-.836-1.981-1.954-3.117 1.395-1.704.839-.565 1.53-.992 1.396.568.7-.144 2.652.428 1.253v2.79l-1.42.28-.421 1.398 1.13.559 1.135.556 1.528 2.061.65.275a8.788 8.788 0 0 1 1.264-.16l.049-.002c.703-.022 1.34.05 2.003.315 1.345.537 2.494 1.225 3.212 1.14.934.012 1.187-.465 1.187-.465.477-.51.484.321.468-.2-.002-.064.042-.124.122-.177l.291-.136Z" data-title="New Forest" class="main-map__map-location" fill="#24623E"></path><path d="m316.14 298.922-1.652.466-1.886.694-1.65-1.626-2.126 1.164-2.122-.698-.473 1.859.71 2.322v2.325l-1.653.697-1.888-.93-.942-.233-2.598 2.092-.943.93-1.65 3.72 1.885 3.252 1.18 2.09.943 2.324 1.418 2.092.943 2.323 2.362-1.627 4.244-.232-.473-2.325.945-1.624.708-1.859.943 1.16.945-1.626 1.887 2.092 1.886-.233.947-1.626 2.829-.699-.233 2.791 1.65 2.09 1.886-.233.71-1.626 1.652-.93.943-.696 1.18.696 1.65 2.789s2.594-1.16 2.831-1.86c.213-.63 1.01-3.86 1.16-4.467a4.268 4.268 0 0 1-.577-.772c-1.264-2.098-1.606-4.69-2.733-6.881-1.146-2.205-2.69-2.853-4.236-4.81-1.234-1.566-4.475-3.941-6.247-4.8-1.424-.69-2.179-.703-3.148-.98l-.734 2.032-.473 1.393Z" data-title="North York Moors" class="main-map__map-location " fill="#24623E"></path><path d="M265.882 245.185s-1.502-.246-1.752.495c-.253.739-1.504 2.218-1.504 2.218h-2.001l-2.003-.74v-1.722l-3.006.983s1.504 1.976 1.253 2.715c-.25.739-2.504 3.203-2.504 3.203s-.75.741-.75 1.48c0 .74-1.504 2.715-1.504 2.715l1.504 1.724 1.752 1.235 2.252-.25.75 1.974-2.753.246-2.502.741-1.755 1.231h-7.01l-2.504.741-3.004-2.464 3.004-2.47v-3.697l.752-1.48 4.507-.74-3.505-3.699s3.756-1.48 4.255-2.467c.501-.982 1.506-3.697 1.506-3.697l-.752-1.973-4.51-.74.191-1.764c.759-.031.823.437 1.087.703.264.262 1.256-.246 1.597-.317.342-.073.413-.39.584-.579.173-.186.168-.357.064-.768-.106-.406.353-.408.541-.483.187-.078-.01-.224-.009-.703 0-.484-.485-.444-.632-.708-.153-.257.595-.634.825-1.038.229-.413 1.18.09 1.482-.133.3-.222.528-.62.943-.766.42-.148.426-.084.765-.343.34-.256.375-.074.91-.364.526-.293.712.077 1.28.006.566-.07 1.482-1.595 1.675-1.708.184-.108.153-.403.075-.592-.073-.189-.978-.639-1.282-.86-.302-.231-.56-.75-.672-1.236-.107-.484.042-.928-.22-1.373-.257-.448-.483-1.196-.559-1.569-.073-.372.007-.78-.184-1.34-.182-.56-.71-.898-.938-1.195-.222-.3-.486-.34-.712-.488l1.956-1.12 1.5-1.48 1.752-.249 1.251.988 3.006.984 1.753.249 1.75 2.71s1.007 2.219 1.504 2.96c.501.739.75 2.713.75 2.713l-1.502 2.71-.752 2.219-1.251.99-3.754 1.23 2.505 1.236 1.752 2.96 2.753-1.234 2.753.739.504 2.464-3.257.987Z" data-title="Northumberland" class="main-map__map-location" fill="#24623E"></path><path d="m282.027 397.601.737 1.69-1.473 1.453-1.72-.725-1.226 2.174-1.227 2.42-2.212 1.207-2.946.486-2.45-.728-1.969-1.69s-1.472-.97-2.455-1.21c-.98-.243.246-3.14.246-3.14l-2.456-.974-2.207-.963s-1.473-.484-1.965-1.453c-.49-.965 0-1.69 0-1.69l2.455-1.453.493-1.69-2.212-3.872-.983-2.176 2.702-2.418 2.21 1.935 1.963 1.453h1.717l1.229.725-1.229 1.207-1.14 1.129c.242.475.983 1.899 1.388 2.498.49.727.981-.965.981-.965s2.456-1.695 2.702-2.423c.244-.723-2.702-3.864-2.702-3.864s-2.21-1.695-3.192-2.176c-.98-.484-1.227-2.179-1.227-2.179v-2.176l2.21-1.206-.49-2.179-1.72-.727v-1.93l-1.227-1.453 1.227-3.144s.246-1.209.737-1.932c.49-.725 2.945-.483 3.928-.483l1.717.725 1.23 2.174 1.228 1.453 1.963 1.207 1.717.24 2.702 3.143 2.946 1.453.737 1.692-1.227 1.934 1.227 1.21-.737.969v1.45l.983.968 1.226 4.108-.246 1.45 1.231 4.353-3.684 1.453-.246 1.451.736 1.209Z" data-title="Peak District" class="main-map__map-location" fill="#24623E"></path><path d="M152.338 498.67h-2.36l-.621 1.1-.992.614-.998.854.501 1.103.497 1.22-1.366.98-.622.12-2.36-.366-2.11-.12-1.244 1.223-.743-.61-.621.368-1.49.976-1.616-.246-.372-.608-.122-1.59-.608-1.338c-.428-.189-.692.03-.93.36-.226.32-.62.21-.78.095-1.212-.877.317.712-.074.58-.397-.13-.497-.554-.82-.813-.331-.267-.76-.005-.992.057-.12.038-.235.18-.32.36.608.113 1.32.25 1.511.284 1.455.288 1.602 1.843 2.29 2.53 1.013 1.012.962 2.434 2.329 3.144 1.393.71 3.136.752 4.212-.408 1.25-1.347 1.524-2.538 3.656-2.25 2.85.39 5.95.49 6.65-2.963.233-1.165.444-1.963 1-2.458l-.028-.588-.457-1.61Zm-11.746.596-1.107.364.249 2.059 2.211.481-.37.73-.612 1.573-1.846-.364-1.965-.728-.737-1.089.612-.486-.124-1.45-.122-1.334-1.475.244-.244-.969 1.105-.728.86-.239 1.473-.244.985-.482h.737l.619.601 1.226-.239.371 1.573-1.846.727Zm-2.97-20.319c.119.044.229.088.334.128 1.266.479 1.04.246 2.264-.117 1.243-.369 1.311.292 2.288.738 1.796.821.982-.481 1.408-1.477.373-.865 1.547-1.023 2.247-1.579 1.139-.919 1.555-2.281 2.409-3.217.18.164.322.306.402.328l1.345 1.172-.738.483-.495 1.453.616 1.333-.86.728-.615.486 1.11.847-1.358 1.092s.127 0 1.357.603c1.225.606 1.471.606 1.72 1.089.244.484.858 1.211.49 2.059-.368.85.122 1.939-.985 2.18-1.104.242-1.251.562-1.251.562l-.232.388-1.19.388-.475.237-.867.309-1.735-.428c-.494-.122-2.06.35-2.06.35l-2.973-.055-2.038-2.633-.16-2.6-.464-.919.169-.807.075-.573-2.571-.266-.247.859-.25 1.466-.994.856-1.118 1.22-1.364.249-1.118.12-1.491.98 1.367 2.569 1.488.122 2.112-.122.996-.366.373 1.464-.624 1.102-.745.613.996 2.2-.621 1.469.122 1.468-.373 1.467.497.858-.162 1.639c-.399-.099-.9.531-.996.236-.097-.289-.952.485-.982.164-.027-.289-.04-.42-.185-.255.02-.074.007-.16-.11-.218-.331-.166-.264-.395-.662-.268-.277.093.085.55.26.754-.151-.078-.313.464-.204.745.035.089 0 .18-.067.275a28.438 28.438 0 0 0-.465-.086c-1.344 1.449-1.396-.089-2.354-1.233-2.5-3.002 2.172-3.847 3.407-5.863 1.972-3.219-.745-5.422-3.851-5.524-1.344-.036-3.026 1.065-4.263.688-2.008-.617.49-1.464 1.12-2.176.053-.473-.129-1.141.013-1.582.297-.919 1.116-1.18 1.992-1.48 1.234-.426 1.679-.914 2.689-1.548 1.639-1.034 3.834-.504 4.734-2.629.408-.969-.069-2.174 1.013-2.797.547-.313 1.272-.228 1.957-.038-.1.316-.188.614-.254.843.067-.229.156-.527.257-.843.33.091.654.211.94.319v.001Zm-.244 2.43-.002.001-.016.117.018-.117v-.001Zm.27-2.106c.035.538.027.964-.051 1.04l-.1 1.127.103-1.129h.001c.078-.075.084-.5.047-1.038Zm-.987 1.038c.359.413.845 1.006.723 1.066.129-.053-.36-.65-.723-1.066Z" data-title="Pembrokeshire Coast" class="main-map__map-location" fill="#24623E"></path><path d="M180.496 442.607c.241-.016.389-.016.415.006.005.006.002.013-.012.022l-.012.007c-.454.261-.889.727-1.28 1.069l-.086.078c-.1.093-.189.186-.268.281l-.28.076c.036-.328.062-.934-.06-1.378l.341-.04c.52-.059.95-.102 1.242-.121Zm-1.879-29.086-.001-.004-.166-1.327h-.675l-1.346 1.66-1.515.164-1.178-.832-.672-.825h-1.178l-1.01-.832-1.18-1.49-.67-1.657 3.197-3.645 1.513-2.485 1.178-.998 1.346.335 2.19.328.335-.663-.169-1.324.675-1.325 1.85-.501-.504-1.657-.843-1.324 1.012-1.655 1.681-.996 2.859-.167 1.684-.496-.168-1.163.168-.825 2.187-1.163-.166 1.66-.169 2.154-.674 1.825.339 1.489 1.176 1.324s0 1.66.506 1.992c.503.331 1.85 1.657 1.85 1.657l.506 1.158 1.347 1.66.84 1.49-.168 1.824 2.02.996-.843 2.152.675 1.162 2.356-.827.334 5.465 1.18 1.826h2.86s2.356 1.322 2.19 1.988c-.171.661-.34 3.148-.34 3.148l-2.693.166-2.185 1.657-.674.999s.504.993.674 1.82c.169.83 0 2.485 0 2.485l-.843 2.156s-.503.83-1.515.997c-1.009.161-2.187 0-2.859.33-.675.33-4.04.993-4.04.993l-.673-1.49s-1.68.661-2.02 1.156c-.337.501-1.515 1.492-1.515 1.492l1.012 1.329.842 1.657s-.339.83-1.18 1.325c-.842.497-1.683.829-1.852 1.657-.169.832-1.681 1.825-1.681 1.825l-.001.001h-1.85l-2.73.72c.08-.097.169-.19.268-.283.029-.026.058-.053.089-.079.388-.34.825-.809 1.28-1.066a.084.084 0 0 0 .019-.014c.626-.338 1.392-.189 2.011-.494.822-.406.692-.613.215-.706-.669-.131-2.024-.037-2.4.047-.692.161-1.196.181-1.598.073a1.602 1.602 0 0 1-.47-.211l.001.004c.142.091.296.161.469.207.402.109.905.089 1.6-.071.374-.085 1.728-.18 2.398-.049.476.093.604.3-.218.706-.612.304-1.378.154-2.007.493l-.001.001-.021.012.011-.007.011-.006c.006-.006.006-.012.001-.016-.022-.022-.169-.023-.415-.006a28.76 28.76 0 0 0-1.242.121l-.343.04c-.009-.033-.016-.062-.026-.091a2.292 2.292 0 0 1-.156-.96c0-.119-.03-.25-.061-.374l-.001-.001a1.412 1.412 0 0 1-.044-.26c.088-.14.135-.233.077-.197-.064.044-.079.113-.077.197-.029.047-.06.098-.098.153a2.665 2.665 0 0 1-.258-.244c-.012-.046-.032-.075-.06-.071-.01-.011-.021-.022-.03-.035.022-.098.236-.384.12-.629a.341.341 0 0 0-.045-.074c-.126-.156-.25-.493-.364-.82-.119-.345-.225-.68-.308-.78-.164-.191-.485-.191-.515-.708a.67.67 0 0 0-.006-.063c-.043-.39-.254-.737-.202-.934-.051.2.159.546.202.934a.735.735 0 0 1 .006.066c.029.516.351.516.515.705.082.099.189.434.308.78.113.328.237.665.364.822a.308.308 0 0 1 .045.072c.114.247-.1.535-.12.629v.002c-.282-.342-.548-.794-.876-1.353-.524-.899-.996-1.646-1.058-2.523.192.107.454-.022.614-.134v-.001c.138-.097.202-.188.08-.12a.181.181 0 0 0-.08.12c-.162.113-.422.24-.615.133-.03-.399.027-.834.2-1.318.47-1.28.714-2.73 1.382-3.94.186-.334.39-.63.63-.89l.062.03c.018.002-.007-.013-.056-.041a4.976 4.976 0 0 1 .857-.733c.481-.326 1.464-.601 1.269-1.329a.774.774 0 0 0-.337-.441l.001-.001c-.484-.323-1.326-.367-1.747-.483-.907-.235-1.497-.872-1.981-1.617-.406-.623-.739-1.322-1.113-1.928.189-.604.369-1.189.172-1.424-.102-.12-.237-.268-.372-.428l-.001.003c.134.159.269.305.371.423l.002.002-.179 1.409c-.574-.916-.546-1.077-.194-1.834l-.001-.001c.03-.069.064-.137.1-.213.268-.586.374-1.262.43-1.936.242-.296.436-.637.464-1.012.015-.2-.017-.409-.114-.625-.117-.269-.208-.48-.275-.653v.005c.069.175.156.381.275.648.097.216.129.425.114.625-.028.373-.222.714-.462 1.007l.073-2.28-.002-.005c-.005-.412.005-.825.095-1.18l.004-.003c.028-.114.062-.224.112-.321.383-.785 1.348-.829 2.118-.993.038-.375-.146-.828-.266-1.118a.556.556 0 0 0-.085-.064l.829-.829Zm-.157 17.329-.001.001c-.031-.015-.069-.037-.123-.062-.04-.024-.084-.054-.13-.084.244-.277.486-.583.486-.703 0-.224-.282-1.507-.122-1.7.164-.183.516.069.681.167.161.1.516.131.748.038.07-.034.157-.094.25-.16a.77.77 0 0 1 .335.441c.197.727-.787 1.003-1.267 1.327a4.888 4.888 0 0 0-.858.734l.001.001Zm4.85-4.852a1.063 1.063 0 0 0-.384.012c-.15.029-.315.084-.456.176-.291.193-.617.313-.81.313-.196-.002-.457.224-.717.482a8.994 8.994 0 0 1-.329.3c-.179.154-.352.281-.452.3-.01.002-.019.006-.029.01-.151.074-.319.459-.65.367-.203-.054-.383-.018-.531-.054a.337.337 0 0 1-.197-.133l-.001-.001a.641.641 0 0 1-.082-.162c-.109-.307-.32-.492-.526-.708a2.243 2.243 0 0 1-.282-.357c-.126-.204-.732-.242-1.342-.297.61.055 1.216.093 1.34.3.085.137.184.249.284.354.206.218.417.403.526.709.024.067.052.12.082.161l.001.001a.334.334 0 0 0 .197.133c.148.036.329 0 .531.055.332.091.499-.293.65-.368a.118.118 0 0 1 .03-.01c.098-.017.271-.146.451-.3.113-.097.229-.204.331-.301.258-.257.522-.481.715-.481.194.002.521-.12.814-.313a1.27 1.27 0 0 1 .452-.176c.16-.03.303-.029.384-.012.017.003.024.012.022.026-.021.115-.696.558-.963.706-.25.138-.504.227-.716.453a1.083 1.083 0 0 0-.095.114c-.178.252-.278.519-.467.64a.402.402 0 0 1-.186.061.675.675 0 0 0-.201.059c-.157.07-.314.19-.454.289l.001.001c.138-.101.295-.219.453-.29a.635.635 0 0 1 .199-.056.42.42 0 0 0 .188-.064c.189-.119.289-.388.467-.639.03-.042.062-.08.095-.115.212-.225.467-.314.717-.453.264-.145.942-.591.962-.706.002-.014-.004-.023-.022-.026Zm-4.693-12.477.336 1.984-.503.663-1.986.23-.555.448-.001.003.559-.45 1.983-.231.503-.663-.335-1.985-.001.001Z" data-title="Snowdonia" class="main-map__map-location" fill="#24623E"></path><path d="m378.448 559.327-.728-1.074-.184-.716h-3.274l-1.27-1.256-1.458-.716-1.092-.72-.364-1.61h-3.092l-1.09-1.435-1.093-.357-1.273.357-1.819-.716h-1.82l-1.275-.535-1.273 1.251-.728 1.435-2-.357-1.092 1.251-1.455-.177-.182-.896-4.916-1.074-1.635-.716-1.637-.36.548-3.225.364-1.431-1.091-.898-1.276-.178-1.999 1.251-.911-.175-.726-2.868-.182-1.615s-.184-1.074-.73-1.074c-.545 0-2.362.894-2.362.894l-2.185-.894-1.091.54s-1.274.716-1.82.716c-.547 0-2 .177-2 .177s-1.456-.539-.546-1.076c.91-.532.364-.716.182-1.253-.182-.537.364-.537-.91-1.076-1.273-.535-3.274-.18-3.274-.18l-2 .54-1.094.896c0 .716.181 2.329.181 2.329l-1.273 1.433-1.457-1.79-2.18.357-2.547 1.076s-2.365-1.076-2.913-.72c-.546.36-2.183 1.793-2.183 1.793l2.365 1.074 3.276 3.048 1.82 2.866 2.726 1.435 2.185-.36 2.003-1.969 1.27 3.58 1.094 1.436s2.183.716 3.093.359c.91-.36 1.455-.717 2.364-.36.91.36 2.183.895 2.91.895.728 0 2.181-.178 2.181-.178s.55-.357 1.094 0c.546.36 1.637.717 1.637.717s.366.539 1.458.357c1.091-.178 1.45-.896 2.362-.535.912.357 2.185 1.251 2.913 1.251.727 0 4.365-.175 4.365-.175s2.729.175 3.454 0c.73-.182 3.095-.36 3.095-.36l2.544-.538 1.824-1.256.364 1.613 2-.178 1.092 1.61 2 .717.185 1.078 2.076 1.323c.424.268 1.038-.01 1.231-.067.191-.058.313-.335.564-.306.253.033.237.397.754.676.266.147.77.535 1.247.877.049.009.097.022.144.03.324.065.67.065 1.018.058a.323.323 0 0 1-.009-.073c0-.235.062-.483.164-.51.07-.022.114.31.147.577.479-.014.956-.014 1.373.135.974.344 2.13 1.116 3.081 1.083.078-.09.164-.147.38-.255.312-.158.312-.344.474-.693.131-.284.47-.6.712-.783.02-.082.038-.166.051-.246l-1.22-1.646.364-1.435" data-title="South Downs" class="main-map__map-location" fill="#24623E"></path><path d="M238.076 304.306c.215.206.494.21.58.516.087.309.491.568.602.799.113.226.34.169.628.42.286.25.215 1.084.739.867.525-.22.117.434.37.514.255.08.46.182-.355.466-.366.127-.395.69-.395 1.02 0 .329-.92.89-.854 1.312.071.417.732 1.173.732 1.173l.02.426c-.007.022-.015.035-.022.062-.038.109-.013.215.011.322l-.397.439s-.209.612-.242.96c-.044.47.275.87.257 1.458-.01.461-.831.426-.443 1.045.244.381.049.519.002.783-.084.492-.024.377-.435.426-.408.044-.286.415-.419.687-.14.271-.2.97-.084 1.03.122.057.293.375.253.758-.16 1.422-.45 1.291-.402 1.635.051.346.26-.018.588.734.224.526-.049.76-.047 1.127.005.373.094.57.369.446.317-.142.381-.015.516.149.193.24.375.45.375.95 0 .297.38-.052.852.483.18.202.88.894 1.493 1.142l.078.074c.213.19.692.261.836.49.089.14 1.271.45 1.304.397.027 0 .537-.209.555.013.024.262-.098.198.138.448.157.171.31.244.508.36.295.162.485.372.743.576.246.193.539.284.796.457.373.255.475.664.779.943.144.127.213.242.317.404.106.17.393.149.559.226.208.093.317.16.561.2.115.02.22.006.335.044.102.033.313-.026.317.131.167.16.14.537.408.619.324.257.752.284 1.067.561.16.14.846 1.3.737.517-.036-.25-.022-.88.348-.457.22.249-.029.832.056 1.136.053.182-.023.441-.12.66-.011.028-.056.183-.067.196-.07.069-.213-.038-.257.04-.104.206-.047.692-.031.927.049.624.348.865.803 1.24.435.362.532.704 1.176.752.31.023.441.171.67.349.35.27.499.05.847-.025.422-.09 1.005-.246 1.395-.182.253.045.801.315.872.457.142.28.526-.068.708.011.213.096.408.362.619.486.13.08.643.242.643.468.153.144.466.258.719.417.204.131.293.39.563.455.2.178.3.461.581.55.608.417.473.107.777-.33.15-.218-.051-.366.213-.504.117-.06.426.073.472.189.091.24.65.58.89.51.361-.104.324-.255.508-.468.049-.06.146-.031.21-.056.174-.068.014-.213.085-.31.093-.124.472.01.605-.093.105-.087.178-.187.3-.258.255-.15.526-.01.759-.13.175.436.113.638.559.58.361-.046.62.236.956.207.137-.011.66-.033.658-.007-.015.22-.208.821.043.959.14.082.162.319.37.27.206.213.149.187.12.495-.018.202.976.146.727-.328-.07-.142 2.117-1.085 1.846-1.396-.248-.288-.326-.321-.137-.654.155-.288.117-.35-.09-.61-.237-.295-.217-.393-.31-.719-.029-.102-.144-.4-.27-.42-.227-.04-.413.192-.488-.148-.058-.262-.051-.76-.293-.907-.193-.118-.388-.233-.584-.35-.175-.103.025-.256.04-.42.04-.35-.286-.488.187-.668.474-.18.428-.332.583-.767.14-.382.643-.49.182-.879-.304-.257-.626-.394-.697-.787-.08-.404-.06-.814-.408-1.065-.24-.173-.712-.093-.805-.435-.044-.148-.069-.508-.186-.596-.156-.111-.202-.204-.28-.373-.146-.304-.51-.062-.763-.055-.277.004-.943-.187-1.162-.349-.433-.315-.32-.656-.262-1.067.053-.388-.304-.614-.504-.894-.113-.162-.2-.388-.441-.308-.229-.024-.408.186-.586.169-.313-.034-.248-.626-.326-.835-.082-.235-.337-.425-.093-.656.149-.138.293-.277.446-.413.572-.51 1.473-1.116 2.247-1.242.428-.071.634-.102 1.012-.324.186-.109 1.153-.486 1.175-.563.151-.57.286-.553.817-.692.339-.091.898-.311 1.102-.588.109-.147.302-.038.446-.098.13-.049.242-.24.33-.34.36-.425-.445-.845.136-1.12.28-.133.617-.277.912-.164.477.184.587.018.876-.233.208-.186.7-.255.166-.477-.175-.07-.404-.226-.39-.421.004-.084.084-.424-.01-.488 0 0-.487.13-.596.124-.175-.013-.412.204-.554.16-.238-.076-.555.042-.812-.011-.131-.025-.122-.382-.275-.382-.395 0-.999.069-1.331-.04-.094-.029.01-.419-.273-.182-.171-.113-.202.062-.173-.288.009-.155-.34-.308-.195-.424-.018-.068.048-.321.006-.36-.12-.103-.43-.037-.574-.09-.2-.073-.318-.21-.468-.355-.094-.089-.615.111-.63-.144-.114-.042-.537-.111-.53-.184-.131-.085-.005-.32-.267-.373-.053-.248.16-.3.173-.468.096-.428.022-.97-.308-1.256-.135-.115-.28-.195-.41-.292-.038-.031.263-.293.26-.4.143-.175-.01-.2.28-.235.116-.015.334.082.464.093a2.33 2.33 0 0 0 .792-.093c.24-.073.238-.224.522-.124.175.058.55.253.645-.029.087-.255.382-.368.53-.581.122-.18.191-.344.298-.512.106-.165-.14-.402.213-.462.539-.093.52.46 1.018.082.437-.335.479-1.003.998-1.373.42-.326.75-.268 1.247-.23.146.01.463.088.594 0 .122-.085.131-.349-.104-.26-.377.14-.26-.082-.453-.224-.097-.073-.246.106-.295-.122-.146-.069-.122-.113-.31-.12-.297-.007-.344.164-.548-.093-.025-.031.073-.54.05-.548-.303-.111-.924.257-1.08.477-.27.381-.252.798-.816.927-.672.155-1.637.153-2.076.765-.302.422-.42-.228-.581-.328-.357-.215-.601-.47-.885-.767-.4-.415-1.469-1.351-.843-1.975.142-.135-.094-.217.05-.384.134-.16.262-.228.012-.357a2.305 2.305 0 0 1-.448-.28c-.224-.179-.153-.359-.302-.57-.044-.13-.062-.261-.142-.388-.078-.122-.52-.157-.521-.224-.169-.104-.253-.386-.47-.441-.182-.109-.424-.18-.62-.266-.394-.171-.913-.089-1.3-.293-.108-.058.025-.4.02-.495-.006-.168-.454.147-.572.093-.492.209-.823.708-1.36.917-.173.068-.461.188-.65.215-.104.013-.18.033-.284.033-.148 0-.157.189-.283.189-.193 0-.655.616-.73.783-.127.29-.133.585-.5.368-.215-.124-.221-.098-.319-.355-.109-.28-.364-.242-.565-.39-.12-.091-.01-.24-.18-.247-.182-.004-.364.262-.45.442-.313.68-1.336.324-2.006.328-.324.005-.546-.355-.867-.168-.138.084-.63.168-.557.379.027.044.038.09.035.142-.017.084-.206.049-.224.14-.057.04-.266.12-.339.137-.044.011-.555.058-.548.013.078.402-.126.597-.328.801a1.845 1.845 0 0 1-.286-.28c-.464-.57-.664-.263-.839-.618-.166-.34-.472-.406-.79-.537-.29-.12-.048-.2-.392-.617-.584-.714-.874-1.564-1.387-1.608-.514-.047-.556-.44-1.018-.634-.461-.193-.466-.462-.634-.757-.167-.295-.719-.83-.943-1.113-.229-.28-.342-.564-.342-.564s-.25-.32-.632-.366c-.384-.047-.528-.14-.568-.574-.038-.435-.346-.635-.57-.67-.222-.036-1.224.148-1.302-.4-.076-.552-.552-.29-.748-.519-.206-.23-.565-.825-.863-.53-.295.3.07.579-.14.705-.206.13-.394.688-.638.797-.244.106-1.673.466-1.735.732-.064.264.464.885 0 1.318-.066.06-.124.108-.18.148l-.113 1.254c.138.5.162.774.34.945Z" data-title="Yorkshire Dales" class="main-map__map-location" fill="#24623E"></path></g><g class="main-map__map-uk-outline"><path d="M70.953 152.045c-.324-.1-.96.135-1.287.209-.878.202-1.695.64-2.555.898-.506.153-1.003.282-1.533.322-1.531.11-4.208-.366-4.335 1.85-.082 1.444 1.391 3.829 2.88 4.075 2.08.344 1.68-2.059 2.783-3.064.761-.694 1.582-1.308 2.416-1.905.428-.308.859-.608 1.285-.905.297-.204.563-.373.607-.746.036-.257.023-.645-.261-.734ZM96.41 124.81c-.34-.27-.923-.209-1.284-.025-1.294.664-3 2.179-1.649 3.636.628.666 1.817.57 2.58.122.497-.297.73-.954.863-1.486.076-.304.12-.619.131-.932.011-.392-.044-.537-.284-.852-.11-.142-.2-.343-.357-.463Zm7.207-15.145c-.397.692-1.457 1.325-1.812 1.88-.54.831-.628 1.838-1.063 2.719-.423.856-1.289 1.653-.834 2.695 1.03 2.374 3.652.14 4.732-.825 1.409-1.253 3.407-2.418 4.578-3.858 1.198-1.468 1.609-3.755 2.434-5.463 1.158-.085 3.154-1.451 3.365-2.689.215-1.3-.965-2.476-2.092-2.902-1.641-.618-2.903.091-4.465.426-1.36.282-2.902.557-3.989-.39-1.022-.894-2.076-1.992-3.037-2.961-.392-.111-.8-.216-1.186-.373-3.075-1.234-3.676-5.373-3.394-8.294.177-1.908-.06-3.512-.349-5.398-.328-2.116.111-4.186-.03-6.302-.132-1.914-1.121-3.014-2.277-4.443-.83-1.018-1.934-3.532-3.358-3.758-1.464-.23-3.536 1.937-3.993 3.155-.697 1.859 1.065 2.934 1.255 4.647.151 1.353-1.027 2.227-.525 3.582.563 1.542 1.859 2.425 2.083 4.189-.586-.743-.877-1.695-1.75-2.194-.646-.366-1.385-.169-2.064-.289-1.87-.317-3.995-2.575-4.922-4.163-.52-.892-1.213-2.693-2.58-1.795-1.023.672-.852 2.558-.845 3.594.57.33 1.406.82 1.533 1.42.257 1.177-.584.691-1.063 1.328-.934 1.238 1.775 2.198.93 3.813-2.05-.343-3.379-2.318-4.586-3.908-.024-.082.125-.042.131-.102-1.832-.675-1.561 2.01-1.888 3.092-.188.63-.623 1.094-.337 1.766.244.565.959.687 1.194 1.326.266.726.013 1.416.421 2.181.748 1.409 1.646 1.686 3.035 2.298.956.42 2.653 2.125 3.345.548.107-.244.65-2.981.564-2.975.492-.037 2.014.448 2.446.732.897.59.63 1.569 1.22 2.299.664.836 1.618.58 2.396 1.233.692.586 1.076 1.131.876 2.043-.96-.808-2.327-2.331-3.673-1.273-2.44 1.916 1.424 5.05 2.635 6.257.6.6.6.777.89 1.511.392.97.457.916 1.31 1.509 1.755 1.213-.194 1.37.54 2.977.76 0 1.526.12 2.298.135.535 1.304 1.828 2.453 2.966.86.512-.714.124-3.385 1.728-2.808 1.209.433.958 2.496 1.162 3.43.446 2.012 1.365.763 1.815-.5.206-.572.308-1.36.732-1.82.714-.78 1.189-.569 1.114-1.795-.03-.468-.573-1.943-.211-2.332.763-.816 1.879 1.373 2.027 1.948.207.796-.226 1.338.803 1.673.735.24 1.866.193 2.614-.031.372-.114.68-.273.993-.027-.164.364-.68.943-1.091 1.085l-2.023.703-.728.614ZM57.645 70.436c-1.098-1.524-1.517-1.125-3.09-.455-.757.322-1.941 1.67-2.857 1.271-.266-.117-.204-.377-.437-.537-.302-.202-.879-.186-1.223-.155-.559.035-.747.4-1.215.646-.905.479-1.983.204-2.96.394-1.346.264-1.765 1.445-2.26 2.585-1.149 2.635.903 3.354 3.013 4.308 1.914.863 3.074 2.276 4.443 3.795.818.912 1.781 1.329 3.015 1.493 1.38.186 1.847-.412 2.81-1.267.422-.379 1.134-.763 1.302-1.337.158-.504-.226-.919-.168-1.4.1-.847 1.6-1.866 1.249-2.7-.18-.412-.874-.714-1.212-1.011-.392-.353-.807-.679-1.089-1.131-.328-.53-.488-1.08-.412-1.709 1.222.437 1.481 2.123 2.921 2.061 1.338-.06 1.755-1.446 1.02-2.429-.767-1.011-2.076-1.349-2.85-2.422Zm78.238 155.22c.483-.915-.366-1.835-.795-2.594-.856-1.526-.683-3.423-1.047-5.113-.692-3.252-2.886-5.887-6.473-4.459-1.34.53-2.249 1.198-2.795 2.096-.548.899-.734 2.03-.625 3.479.053.703-.111 2.329.088 2.992.2.664 1.502 1.174 1.67 1.848.16.648-.67 1.291-.614 1.939.056.65.107 1.47.35 2.376.882 3.254 1.904 5.035 4.828 5.76 1.617.4 3.662.23 4.816-1.128.663-.788.774-1.68.71-2.66-.025-.326.02-.655.02-.983 0-.27-.162-.48-.182-.734-.031-.35-.049-.6-.273-.876-.175-.218-.433-.453-.444-.752-.029-.602.515-.715.766-1.192v.001Zm-27.558-34.937c.52-2.09 1.293-2.979 2.812-4.432 1.054-1.007 2.676-3.168.879-4.321-2.31-1.482-5.249 2.442-6.937 3.556-1.899 1.25-4.359 3.383-5.007 5.619-.445 1.535.309 1.976.786 3.207.568 1.469-3.558 2.325-4.606 3.707-1.346 1.784-1.058 4.066-.463 6.09.377 1.297 1.034 3.846 2.555 4.283 1.773.508 2.223-1.963 2.602-3.163.999-3.15 3.206-6.178 5.038-8.927 1.187-1.777 1.815-3.551 2.34-5.619h.001Zm-25.433-48.008c.12-.917-.73-1.025-1.478-.901-.838.146-1.45.76-2.127 1.227-.983.683-1.813 1.506-2.702 2.313-.43.389-.836.755-1.11 1.28-.23.442-.405.817-.76 1.178-.641.652-1.278 1.256-1.8 2.01-.283.408-.319 1.02.205 1.131.72.151 1.923-.315 2.61-.539.445-.144.986-.246 1.343-.57.384-.34.679-.847 1.05-1.233.862-.894 1.825-1.702 2.816-2.451 1-.75 1.788-2.203 1.953-3.445Zm6.053-26.503c-1.828-.61-2.53.602-3.85 1.575-1.773 1.31-1.196 2.081-.007 3.607.576.75 1.167 1.502 1.88 2.134.345.306.77.721 1.197.899.514.217 1.46-.16 1.945-.384.466-.209.739-.57.876-1.054.302-1.013-.02-2.125.014-3.156.062-1.653-.375-3.05-2.055-3.62v-.001Zm5.4 82.865c-.109-4.221-3.834-.55-5.222.874-.987 1.007-2.008 1.502-3.414 1.646-1.371.147-3.214-.22-4.308.823-1.174 1.125-.843 3.128-.867 4.583-.027 1.629-.688 2.747-1.363 4.182-.474 1.005-1.568 3.485-.035 4.137 1.358.568 3.055-1.156 3.647-2.17.756-1.288.84-2.83 1.91-3.964.605-.632 2.89-2.127 3.602-.865.61 1.078-1.34 2.33-1.774 3.108-.64 1.116.315 1.644 1.069 2.274.697.581 1.151 1.433.87 2.44-.063.209-.826 1.318-1.005 1.384-.602.209-1.238.475-1.649.976-.929 1.147-.52 3.275.744 4.035 1.532.923 2.517-.772 3.18-1.892.817-1.375 1.533-2.063 3.16-2.285 1.526-.213 2.937-.261 4.032-1.508 2.84-3.234.593-6.795-.8-9.98-1.107-2.531-1.706-5.067-1.777-7.798Z" style="fill:none;stroke:#31363f;stroke-width:1.41px" fill="#24623E"></path><path d="m141.016 141.222-4.406 2.414h-1.752l-1.873-.584s-1.206.393-1.324.393c-.117 0-.856-.082-.856-.082a4.282 4.282 0 0 1-.88 1.182c-.7.694-1.296 1.415-1.944 2.152-.546.63-1.342.951-1.823 1.692-.42.641-.615 1.396-1.02 2.039-.28.453-.746.763-.98 1.242-.299.613-.163 1.29-.06 1.932.107.666.052 1.047-.296 1.626-.39.635-.621 1.136-.238 1.853.728 1.362 2.092 2.344 3.605 2.566 2.766.408 5.26-1.424 6.992-3.398.408-.46.692-1.214 1.15-1.602.296-.248.731-.514 1.135-.508.126.284-.277.99-.397 1.25-.217.46-.484.9-.774 1.32-.584.835-1.26 1.607-1.906 2.395-.614.74-1.284 1.584-2.007 2.218-1.196 1.045-2.163.794-3.585.397-1.608-.446-4.344-1.284-5.825-.148-.644.496-.786 1.368-1.367 1.932-.53.528-1.865.956-2.03 1.777-.204 1.067 1.551 1.213.313 2.165-.361.281-.892.228-1.189.64-.208.29-.228 1.968-.641 1.813-.401.9-.699 2.132-.537 3.21.184 1.11.067.763.923.898.623.098 1.393.076 2.04.102-.139.657-1.605 1.582-2.224 1.742-.202.756-.153 1.548-.31 2.314-.152.738-.502 1.393-.828 2.074-.115.246-.506 1.005-.016 1.073.278.04.834-.67 1.047-.834.233-.18.819-.754 1.09-.78 1.082-.076-.382 2.007-.488 2.282-.49 1.238-.577 2.576-1.154 3.78-.594 1.253-1.573 2.223-2.205 3.436-.599 1.154-1.185 2.638-2.103 3.552-1.187 1.182-1.098 2.68-.95 4.308.09.965.42 3.21 1.775 3.194.455-.002 1.212-.63 1.489.06.228.568-.646 2.092-.801 2.709-.233.92-.453 1.85-.481 2.799-.071 1.761.492 2.744 2.22 3.225.56.153 1.502.162 1.145.974-.215.495-1.367.868-1.737 1.369-.362.486-.623 1.122-.885 1.666-.293.61-.502 1.446-1.038 1.881-.38.805-1.012.637-1.02 1.682-.003.827.256 1.566.037 2.426-.36 1.402-1.278 2.622-1.648 4.038-.537.359-.07 1.843-.158 2.466-.14 1.008-.009 1.744 0 2.758.025 2.043.096 4.15-1.24 5.796-1.772 2.185-2.342 4.392-1.841 7.183.579 3.263 4.5 1.653 6.819 1.322 2.311-.321 4.463-1.759 4.696-4.319.249-2.63-2.167-4.212-.49-6.87.696-1.105 1.293-2.005 1.548-3.312.53-2.704 1.877-5.135.894-7.83-.379-1.02-.552-3.399.66-3.967.418-.958.394-2.236 1.15-3.077.91-1.009 2.106-1.548 3.137-2.375.572-.468 1.735-.963 1.906-1.728.29-1.21-.466-1.975-1.085-2.91-.537-.795-.947-1.756-1.398-2.607-.472-.888-.83-1.793-.993-2.787-.307-1.823-3.248-8.179-.096-8.877 1.316-.293 2.531-.91 3.308-2.066.805-1.195 1.273-2.564 2.087-3.73.739-1.063 1.475-2.16 2.422-3.05.371-.351.708-.797 1.116-1.088.435-.322.999-.421 1.467-.683.634-.355 1.169-1.083 1.544-1.695.496-.82.778-1.75 1.335-2.573.22-.326.508-.59.863-.774.344-.191.759-.22 1.102-.395.397-.198.74-.577 1.138-.801.442-.255.903-.464 1.374-.663.161-.065.523-.224.441.068-.091.355-.872.693-1.154.857-.317.186-.63.399-.967.55-.397.175-.818.27-1.195.488-.378.202-.537.501-.704.878-.197.433-.441.839-.656 1.263-.25.49-.408 1.02-.66 1.517-.223.43-.547 1.005-.933 1.313-.441.344-1.05.286-1.517.577-.42.257-.888.634-1.254.978-.845.812-1.752 1.677-2.067 2.789-.674 2.351-2.71 3.658-4.035 5.56-.91 1.294-.726 2.712-.761 4.174-.025 1.406-.628 2.87-.051 4.248.324.767.94 1.266 1.377 1.965.41.663.56 1.497 1.074 2.165.617.825 1.389 1.094 2.358 1.409.765-1.094-.652-3.496-.59-4.852.033-.754.706-4.873 2.14-3.884.602.408.92 1.546.97 2.23-2.02-.855-1.34 3.436-.818 4.259 1.084 1.717 1.623 2.73 2.072 4.696.23 1 .69 2.14 1.475 2.755.907 1.162 2.45 1.375 3.363.155 1.209-1.635-.027-3.272-.777-4.8-.76-1.542-1.51-3.084-1.985-4.732-.504-1.688-.763-3.463-1.052-5.202-.055-.341-.457-2.183.251-1.653.457.351.71 1.744.852 2.268.266.962.435 1.952.734 2.91.677 2.163 3.053 3.591 4.437.925.599-1.167.435-2.493.603-3.751.169-1.178-.275-2.247-.168-3.423.093-1.016.918-1.93 1.242-2.937 1.517.33.747-3.594.559-4.308-.357-1.358-1.327-4.006-.033-5.129 1.133 1.56-.036 4.583 1.31 5.979.715-1.93.901-4.257 2.03-5.992.264-.415 1.609-2.17 2.296-1.79.664.368-.694 1.794-.96 2.123-1.378 1.743-2.239 3.45-2.25 5.725-.022 1.884 1.844 3.66 2.775 5.222.901 1.517 2.6 2.795 4.1 3.718.663.402 5.146 1.349 4.244 2.276-.826.843-4.836-.626-5.89-.876-1.914-.46-4.048-2.05-6.016-.987-4.006 2.16-.435 8.828-.706 12.2-.093 1.094.025 2.225-.312 3.288-.293.947-1.203 1.826-.97 2.89.136.588.761 1.127 1.078 1.626.278.44.701.743 1.118 1.083.362.295.748.559 1.114.847.355.298.504.655.819.974.224.226.543.364.791.566.327.268.562.619.914.852.837.534 1.877 1.138 2.46 1.96.573.812.622 2.001.872 2.949.271 1.022.757 1.54 1.35 2.391.89 1.264.327 1.45.063 2.933-.452.341-.865 1.26-1.413 1.719-.519.446-1.149.91-1.714 1.295-2.498 1.706-3.306 4.663-4.772 7.254-.679 1.207-.765 2.518-1.085 3.849-.612 2.551-1.306 4.414-3.294 6.1-2.371 2.001-3.165 2.937-3.596 5.934-.401 2.813-2.464 4.838-1.173 7.665.439.969 4.538 5.965 1.978 6.44-1.286.234-1.741-1.675-1.896-2.58-.1-.57-.047-1.139-.187-1.695-.13-.54-.481-.954-.703-1.462-.317-.706-.204-1.4-.807-2.008-.464-.466-1.112-.719-1.762-.605-1.426.25-2.304 1.874-2.55 3.16-.835 4.222 2.262 10.768 5 13.825 1.452 1.622 2.934 3.25 3.358 5.464.397 2.067.594 4.738 2.802 5.8 1.963.937 3.052-.871 2.59-2.655-.494-1.916-2.158-3.192-2.843-5.01-.553-1.445-1.205-3.497-1.083-5.058.122-1.553 1.662-2.658 2.982-3.246 1.517-.672 2.307.164 3.33 1.21 2.131 2.158 5.465 1.85 7.506 4.145 1.15 1.296 1.717 2.95 2.795 4.29 1.289 1.609 3.838 3.24 5.92 3.488 2.044.255 3.368-1.937 2.82-3.792-.241-.834.085-1.293.149-2.127.084-.856-.173-1.897-.366-2.735-.244-1.083-1.087-1.39-1.914-2.003-.914-.677-1.234-1.544-1.305-2.653-.058-.892.124-2.205 1.242-2.345 1.096-.135 1.402 1.065 1.746 1.832.885 1.968 3.212 1.542 4.991 1.32.49.53.38 1.167.58 1.79.25.779.995 1.347 1.452 2.001.602.868 1.946 2.485 3.137 2.032 1-.375.701-1.273.763-2.125.031-.526.588-1.885 1.194-1.071.465.625-.187 1.894.164 2.63.439.93 1.746.948 2.589.733 1.067-.275 2.103-.615 3.085-1.12.896-.451 2.112-1.196 2.711-1.99.282-.378.816-.209.987-.823.124-.449-.226-.948.098-1.36.448-.566 1.974-.326 2.595-.53.743-.244 1.251-.985 1.988-1.32 1.131-.513 2.03-.648 3.25-.686.885-.02 2.11-.277 2.71-1.014.535-.66.355-2.15.349-2.974-.02-.914-.258-2.483.26-3.292.516-.808 2.093-.959 2.947-.979 2.026-.028 4.104.66 6.123.848 2.296.204 4.607.277 6.897.532 1.517.171 2.934-.235 4.427-.23 1.582.002-.095.993-.714 1.21-2.524.895-5.597-.636-7.862 1.148-.896.714-1.093 1.896-1.92 2.635-.722.648-1.77.719-2.419 1.473-1.641 1.923-2.202 4.65-2.48 7.059-.044.388-.086.767-.137 1.155-.31.087-.779 1.25-1.047 1.593-1.56 2.05-2.858 3.84-3.811 6.329-.755 1.965-.74 4.113-1.274 6.131-.452 1.684-1.972 3.2-1.266 5.085.512 1.386 1.544 2.187 2.517 3.19 1.13 1.169 2.075 2.721 2.906 4.123.757 1.276 2.148 2.383 2.693 3.76.51 1.298.817 3.166 1.06 4.577.251 1.417.84 1.657 1.645 2.748 1.184 1.626 1.965 5.457 4.957 3.76.422-.244.697-.61.857-1.058.17-.49.057-.936.13-1.435.045-.328.4-1.466.841-.843.397.537.06 1.486 0 2.094-.241 2.553-2.442 4.916-1.532 7.527 1.785 5.133 6.568-.475 7.291-3.148.586-2.163 1.131-2.75 3.274-1.826 1.937.834 2.933.526 4.129-1.244.847-1.242 2.424-3.984 3.782-1.593.818 1.455.184 3.636.069 5.207-.156 2.067-.963 2.888-2.467 4.208-1.205 1.062-1.986 1.96-1.986 3.611 0 .42.058.852.105 1.267 1.1.532 3.684 2.218 1.805 3.456-1.595 1.054-3.764.663-5.432 1.919-2.123 1.6-1.597 3.76-1.602 6.093-.015 1.662-.66 3.441-.408 5.094.228 1.555 1.167 3.103 2.65 3.454 2.013.479 2.792.574 1.117 2.488-.62.71-1.336 1.285-1.861 2.081-.602.89-.741 2.567-1.582 3.137-.524 1.843-2.418 4.173-1.742 6.187.34 1.027 1.34 1.64 1.709 2.688.295.832.536 2.285.386 3.164-.522 3.074-8.508 3.023-5.287 7.564.626.868 1.502 1.484 2.172 2.303.512.628.654 1.313.876 2.085.169.59 1.114 3.412-.426 2.862-.918-.324-1.635-1.531-2.402-2.132a11.719 11.719 0 0 0-1.937-1.21c-1.46-.747-3.063-2.661-4.71-2.9-.849-.132-1.736.46-2.501.756-1.04.406-2.119.738-3.148 1.162-1.75.728-3.492 2.105-5.473 2.119-1.604.017-3.094-.358-4.456-1.18-1.125-.68-2.232-1.824-3.468-2.257-2.2-.78-2.304 1.056-2.99 2.53-.501 1.05-1.4 1.177-2.382 1.608-2.587 1.146-4.971 2.965-7.733 3.713-1.487.408-1.688-.823-.737-1.688 1-.916 2.074-1.99 1.626-3.403-.244-.739-.446-1.085-1.286-.992-.772.085-1.502.41-2.172.781-1.147.635-1.684.069-2.391-.827-.395-.497-.846-.98-1.132-1.546-.301-.595-.288-1.234-.481-1.857-.382-1.284-.92-2.686-2.03-3.518-1.366-1.03-3.487-1.25-5.135-1.42-2.786-.29-6.89.457-7.64 3.725-.326 1.433-.058 3.03-.082 4.478-.025 1.325-.151 2.618.475 3.831.65 1.26 1.55 2.347 2.142 3.643.586 1.286 1.103 2.356 2.354 3.117 2.436 1.5 4.883 1.95 7.622 1.3.362-.087.721-.178 1.083-.262.177.818-1.12 1.346-1.578 1.825-1.357 1.442-1.876 2.525-2.335 4.47-.271 1.132-.373 2.187-.906 3.263-.61 1.25-1.61 1.371-2.644 2.181-.87.688-1.43 1.673-2.234 2.425-.956.902-1.856.638-2.999.953-.962.267-1.484 1.145-2.176 1.777-.86.788-1.934 1.005-2.702 1.795-.863.896-1.293 1.89-1.808 2.997-.845 1.823-3.81 4.607-.98 6.262 1.093-.867 1.925-2.08 3.44-1.99.54.031 1.023.255 1.569.255.585 0 1.173-.363 1.766-.288.94.126 1.699.97 2.648 1.176 1.356.295 1.89-.888 1.855-2.16-.034-1.454-.69-2.288.554-3.444.739-.683 1.86-1.442 2.742-1.899 1.13-.583 2.396.003 3.56-.286 1.116-.277 1.946-1.209 3.124-1.41 1.196-.198 2.453.257 3.631-.114.783-.25 2.298-1.635 3.115-.84.12.29.306.743.266 1.12-.77.16-1.735.206-2.116.991-.346.7-.153 1.83-.207 2.591-.066 1.023-.077 2.199-.51 3.14-.44.95-.528 1.05.096 2.049.831 1.333 1.435 3.121 3.1 3.558.57.153 1.886.178 2.086.925.195.728-.788 1.003-1.269 1.327a4.462 4.462 0 0 0-1.493 1.64c-.668 1.206-.912 2.657-1.382 3.937-.557 1.544.093 2.53.859 3.842.987 1.679 1.393 2.413 3.434 1.943.64-.144 4.159-.317 2.182.659-.62.308-1.397.15-2.03.506-.454.261-.889.727-1.28 1.067-1.39 1.2-.953 2.555-1.217 4.232-.242 1.542-1.018 3.006-1.444 4.49a92.591 92.591 0 0 1-1.584 4.911c-.4 1.17-1.327 2.072-1.84 3.184-2.26 1.355-4.296 3.16-6.592 4.436-.876.497-1.983.508-2.748 1.158-.728.623-1.114 1.655-1.82 2.33-1.601 1.526-3.797 2.894-6.047 2.797-1.067-.047-2.291-.42-3.318.026-1.09.48-1.447.96-2.682 1.19-2.367.425-2.451 2.801-4.15 4.174-.704.56-1.877.717-2.25 1.584-.426.994.386 2.296-1.41 1.473-.975-.444-1.043-1.105-2.286-.739-1.226.364-1 .6-2.265.118-.887-.34-2.315-.934-3.234-.408-1.078.62-.603 1.825-1.014 2.8-.9 2.12-3.092 1.592-4.731 2.628-1.01.632-1.455 1.12-2.689 1.544-.878.302-1.697.563-1.994 1.482-.142.443.042 1.109-.013 1.584-.628.712-3.126 1.557-1.118 2.173 1.24.378 2.917-.723 4.263-.685 3.106.098 5.821 2.305 3.851 5.524-1.238 2.016-5.907 2.859-3.405 5.86.954 1.145 1.005 2.685 2.354 1.234 0 0 2.107.395 2.46.466 1.455.286 1.604 1.84 2.29 2.526 1.013 1.012.962 2.436 2.328 3.144 1.396.714 3.14.752 4.215-.404 1.247-1.351 1.522-2.542 3.654-2.252 2.85.39 5.951.49 6.65-2.963.408-2.03.745-2.946 2.962-3.082 1.255-.077 2.535-.228 3.784-.142 1.122.071 2.343.13 3.288-.596.81-.61 1.466-2.086 2.721-1.622 1.152.428.746 1.835.83 2.773.095.996.586 2.063 1.557 2.473.923.397 2.048.346 3.017.633 1.242.37 2.38.168 3.654.148 1.286-.022 2.901.415 3.948 1.187 1.524 1.116-1.49 1.61-2.229 1.702-1.271.16-2.753-.231-3.962.248-1.36.546-1.928 1.914-2.147 3.265-.262 1.644.537 2.438 1.785 3.405.61.47.903.95 1.744.852.659-.082 1.482-.486 2.14-.67.735-.193 1.294-.692 2.01-.887.952-.273 1.942.106 2.904.11 1.194.008 3.705-.651 3.75-2.095.028-.914-.566-1.236.072-2.083a8.583 8.583 0 0 1 1.473-1.453c2.436-1.78 3.654.439 4.867 2.167.495.708.548 1.633 1.112 2.271.599.688 1.373.981 1.88 1.815.764 1.242.997 2.964 1.9 4.108.874 1.103 2.684 1.385 3.782 2.376 1.56 1.431 2.888 2.86 4.865 3.778 1.932.898 3.882.532 5.987.346 2.019-.17 4.01.364 6.016.149 1.55-.167 2.961-.677 4.175-1.704 1.404-1.196 1.1-3.008 1.914-4.521.956-1.772 3.16-2.385 4.421-3.96 1.174-1.46 1.602-1.792 3.505-1.601 1.61.16 3.223.108 4.792-.302 3.088-.805 5.674-2.782 7.653-5.24.641-.792 2.003-1.776 1.78-2.937.813-1.792 2.894-1.799 4.194-3.043 1.251-1.187 1.413-2.733 3.256-3.354.55-.189 1.212-.158 1.71-.475.231-.155.92-1.828 1.232-.956.046.122-.233 1.193-.282 1.204-.42.127-.739.568-1.131.777-.386.204-.79.35-1.187.521-.845.335-1.724.734-2.192 1.562-.459.818-.745 1.688-1.397 2.442-.708.828-1.602 1.431-2.25 2.33-.84 1.173-1.552 2.424-2.258 3.684-.603 1.07-1.42 2.159-1.79 3.348-.184.598-.537.973-.863 1.497-.34.548-.597 1.136-1.078 1.584-.586.517-1.406.585-2.15.778-.933.238-1.402.7-2.07 1.374-1.437 1.455-2.752 3.02-4.265 4.394-.774.701-1.82 1.233-2.39 2.136-.607.959-.696 2.365-.827 3.46-.201 1.673-.12 3.36-.315 5.027-.155 1.294-.126 3.643-1.237 4.535-1.21.976-3.286-.05-4.67-.016-1.715.038-3.38.87-5.06 1.171-3.19.586-6.273.153-9.193-1.182-3.39-1.548-6.528-.275-10.09-1.014-1.702-.346-3.14-.982-4.92-.738-1.49.206-2.7.703-4.247.652-3.307-.104-6.264.745-9.583.63-3.057-.1-6.023 1.91-7.174 4.913-1.113 2.924 1.968 4.641-.619 7.66-2.467 2.888-4.23 3.652-7.7 2.405-1.375-.495-3.391-1.231-4.67-.102-1.279 1.14-.587 3.032-.762 4.505-.187 1.506-1.311 2.558-1.549 3.98-.266 1.548.859 2.826 1.132 4.303.696 3.77-2.651 5.131-4.694 7.576-.936 1.111-1.59 2.358-2.667 3.365-1.118 1.043-2.382 1.602-2.812 3.194-.33 1.214.58 2.957-.748 3.74-.408.24-1.043.043-1.5.023-.896-.031-1.51.738-2.37.763-.64.024-1.467-.31-2.07-.038-.513-.244-.475 2.039-.935 2.274-.401.206-.951-.062-1.395.113-.472.186-.652.794-1.12.876-.461.076-.768-.177-1.171.222-.335.322-.535.872-.697 1.298-.344.872-.215 1.819-.288 2.74-.05.654-.218 1.308-.289 1.97-.281 2.677-3.345 1.918-4.47 3.79-.543.919.074 5.182-2.034 4.51-1.093 1.557-2.852 2.808-4.228 4.117-.89.839-1.564 1.48-2.648 1.946-.894.384-2.217.77-2.986 1.43-.839.713-.766 2.576-1.94 2.72-2.344-2.704-5.172-1.195-8.018-.075-3.73 1.462-4.408 3.75-4.918 7.475-.227 1.638-.395 3.248 1.49 3.78 1.482.413 3.993.114 5.131-1.004 1.13-1.12.852-3.006 1.875-4.18 1.116-1.286 2.464-.452 3.769.085 1.661.674 3.527.951 5.084 1.859 1.875 1.087 1.888 2.78 3.095 4.294.204.25.658.646.8.863.366.59.575 1.506.886 2.176.359.77.6 1.72 1.586 1.745.639.019 1.395-.34 1.903-.704.725-.52.521-.826.967-1.391.717-.912 1.76-.794 2.591-1.53.453-.407.639-1.216.923-1.733.472-.852.63-.466.408-1.589-.237-1.222-1.444-2.542-1.344-3.718.053-.647.674-1.27.887-1.876.202-.597.18-1.247.446-1.821 1.111-2.407 1.555.556 2.216 1.264.719-.308 1.646-.827 2.12-1.36.657-.765.606-1.537 1.57-2.1.811-.473 1.523-.524 2.23-1.276.775-.816.893-1.256 2.168-1.415.85-.116 2.493.297 2.564-.925-.539-.943-.164-2.103.287-2.918.215-.39.592-.58.727-1.033.122-.42-.24-.728.005-1.258.787-1.72 3.343-2.107 4.339-.444 1.44.091 2.775-.341 4.208-.27 1.495.062 2.333-.131 3.7-.621 2.245-.81 4.736-1.83 7.136-1.864 1.504-.022 2.81.022 3.931 1.096.883.852 1.961 2.416 3.148.983.794-.965-.029-1.311-.355-2.112-.322-.792.164-2.043 1.187-1.795.718.182 1.158 1.247 1.91 1.617-.02 1.893.74 2.039 1.923 3.206 1.384 1.355 1.823 2.154 3.853 1.267 1.935-.85 2.942-.271 4.572.998 1.684 1.313 2.316 3.239 3.811 4.627 1.493 1.384 3.96.97 5.805.754 2.201-.255 2.354-1.481 2.68-3.43.27-1.632.92-2.872 2.112-4.034 1.085-1.067 2.77-1.622 3.545-2.964.645-1.127 1.295-3.094.3-4.146-1.07-1.125-1.866-1.602-1.611-3.27.277-1.805 1.211-3.099 1.94-4.727.702-1.555 1.097-3.09 1.986-4.58.781-1.307 1.205-2.279 2.784-2.452 1.54-.184 2.527-.754 3.81-1.617 1.232-.823 2.13-2.043 3.344-2.846 1.187-.783 2.578-.508 3.92-.57 1.5-.076 2.016-.54 3.168-1.251 1.344-.83 3.017.044 4.452-.386.617-.173.967-.626 1.5-.93 2.637-1.506 6.57-.157 9.168.757 2.409 1.146 4.842 2.44 7.065 3.915 1.076.72 1.861 1.775 2.975 2.427 1.233.736 2.553.783 3.057 2.289.248.745-.054 3.398 1.315 3.063 1.484-.352.493-2.34.076-3.014-2.046-3.263 1.224-4.049 3.953-4.115 3.016-.073 5.954-.346 8.882.628 2.55.843 5.213 3.194 7.997 1.348 1.144-.763 1.27-2.131 1.342-3.416.08-1.455-.096-1.883-1.358-2.564-.838-.453-2.833-1.256-1.903-2.518.76-1.034 3.294-.406 4.363-.46 3.275-.146 6.715-.973 9.936-1.605 1.69-.33 2.76-.182 4.28.559 1.03.506 2.575 1.286 3.515.164.35-.42.402-1.094.386-1.617-.01-.524 2.89-.648 3.274-.79 1.223-.437 2.272-1.369 3.432-1.956.896-.444 1.955-.682 2.658-1.436.707-.767.639-1.384-.136-2.027a45.591 45.591 0 0 1-2.229-1.944c-.5-.47-1.484-1.464-.923-2.242.65-.892 2.099.57 2.631.982.832.66 1.557 1.31 2.252 2.112.636.737 1.45 1.085 2.3 1.535.708.37 1.382.808 2.083 1.196.621.35 1.413 1.15 2.154 1.142.898 0 1.347-.991 2.016-1.426.8-.519 1.853-.066 2.68.184.985.29 1.868.646 2.902.513.896-.125 1.892-.417 2.673.19.739.577 1.29 1.247 2.087 1.786.845.557 1.467 1.48 2.4 1.89 1.152.51 3.144.45 3.37-1.1.146-1.08-.723-2.074.663-2.482 1.016-.302 1.84-.701 2.762-1.196 1.105-.583 2.245-.268 3.507-.52 1.29-.248 2.443-.753 3.785-.878 1.335-.124 2.575-.14 3.866-.536 1.007-.32 1.877-.193 2.902-.36 1.883-.317 3.54-1.262 5.468-1.517 2.737-.36 5.317-.402 7.92.488 2.069.712 4.074 1.477 6.184 2.087 1.085.322 2.214.621 3.325.846.865.17 1.88-.103 2.693.188 1.613.572 3.734 2.318 4.572-.375.326-1.054.071-1.825.932-2.735.645-.694 1.688-1.24 2.475-1.781 1.933-1.322 4.222-1.67 6.498-2.026 1.455-.226 3.36.087 4.559-.989.61-.555.993-1.355 1.583-1.954.668-.677 1.413-1.267 2.037-1.983.856-.965 1.936-2.29 3.092-2.898 1.664-.876 3.075.51 4.683.76 1.085.161 3.332.094 4.135-.802 1.105-1.235-.257-2.908-.25-4.281.004-1.602 1.344-2.71 2.51-3.627 1.476-1.162 2.789-1.948 4.546-2.587 1.384-.508 2.529-1.337 3.844-1.9 1.65-.688 2.97-.968 4.26-2.272 1.173-1.183 2.109-2.636 2.823-4.133.823-1.752.304-3.74-.075-5.532-.448-2.101-2.287-4.122-.843-6.154.51-.734 1.987-1.78 1.794-2.813-.195-1.062-1.779-1.102-2.6-1.04-1.186.097-2.289.599-3.447.805-1.495.26-3.028.142-4.53.178-5.7.128-11.093 4.392-16.786 3.245-1.228-.249-2.384-.73-3.593-1.076-.963-.268-2.176-.268-3.066-.743-2.391-1.278 1.664-3.847 1.091-5.626-.49-1.526-4.53-1.091-5.847-1.357-1.369-.275-2.757-.302-4.082.19-.559.213-1.53.564-1.907 1.032-.275.328-.515 1.302-1.132 1.036-.537-.23-.104-1.012.093-1.355.508-.906 1.547-2.02 2.523-2.436 1.697-.728 3.702-.92 5.486-1.398 1.71-.472 2.948-1.182 4.725-.712 1.297.342 2.817.468 3.946-.386.634-.488.763-1.102 1.178-1.721.35-.521.985-1.118 1.464-1.55.648-.59 1.127-.941 1.318-1.84.177-.823-.027-1.726.25-2.509.153-.459.484-.787.588-1.266.076-.322.042-.695.064-1.027.023-.433.071-.792-.168-1.178-.266-.433-.792-.588-1.016-1.067-.887-.176-1.815-.413-2.724-.26-.848.144-1.595.717-2.454.783-.903.073-4.206-.963-3.316-2.118 1.53-1.995 4.33-.442 5.88-2.012 1.45-1.456 1.325-4 3.333-5.067 1.058-.568 1.985-.124 2.568.834.626 1.02 1.05 1.327 2.276 1.478 1.152-.003 2.602-.151 3.76-.497.917-.284 1.675-.963 2.423-1.547a6.476 6.476 0 0 0 1.92-2.409c.391-.88 1.243-1.91 1.383-2.879.135-.976-.919-.759-1.624-.872-1.4-.222-1.291-1.091-.322-1.892.79-.665 1.445-1.136 1.921-2.043.528-1.014 1.374-.202 2.292-.55 1.231-.466 1.595-2.077 2.256-3.075.912-1.397 2.094-2.75 3.115-4.077.949-1.225 2.196-1.686 3.38-2.567 2.057-1.508 2.085-4.367 2.283-6.697.1-1.047.328-2.191.42-3.278.188-2.223-.837-4.523.15-6.682.98-2.15 2.56-4.015 3.192-6.35.457-1.682.27-3.448.353-5.17.086-1.748.601-3.604-.102-5.292-.774-1.877-1.336-3.417-1.453-5.502-.071-1.242-.464-2.194-.774-3.365-.366-1.4-.249-2.802-.985-4.104a31.46 31.46 0 0 0-2.645-3.968c-1.666-2.121-4.234-3.226-6.4-4.725-1.066-.737-1.883-1.726-2.98-2.447-1.185-.774-2.496-1.345-3.743-2.021-2.08-1.114-3.807-1.668-6.156-2.021-2.205-.326-4.419-.069-6.588-.375-2.017-.277-2.913-1.468-4.991-.665-.917.352-1.72.652-2.716.477-.905-.165-1.699-.595-2.637-.662-1.24-.077-2.494.176-3.743.15-1.162-.025-2.289-.327-3.447-.385-1.626-.088-3.343.726-4.944 1.023-1.742.31-3.232 1.08-4.12 2.682-.918 1.655-1.053 3.722-1.708 5.5-.537 1.48-1.023 4.323-2.735 4.877-1.21.388-2.287-.588-3.625-.288-1.244.28-2.24.639-3.117-.58-.67-.93-1.106-1.787-2.014-2.513a17.52 17.52 0 0 0-2.806-1.799c-.614-.33-1.189-.638-1.888-.539-.53.071-1.209.7-1.772.39-.739-.403-.06-1.03.341-1.381.446-.39 1.054-.575 1.456-1.016.559-.61.763-1.389 1.357-1.99.672-.685 1.48-1.22 2.061-1.99.52-.676.799-1.52 1.356-2.163 1.342-1.566 3.014-3.176 4.487-4.634.777-.77 1.764-1.329 2.147-2.389.322-.876.256-1.874.24-2.79-.024-.952.16-1.92.073-2.86-.3-3.39-1.817-6.808-3.108-9.914-1-2.393-2.054-4.749-3.547-6.89-1.193-1.708-2.402-3.84-4.458-4.52-2.237-.74-4.031-1.624-5.653-3.406-1.726-1.905-3.97-2.682-5.918-4.206-2.019-1.581-4.188-3.742-5.44-5.987-.798-1.444-1.601-2.646-3.409-2.513-1.495.11-3.186.676-4.658 1-1.522.335-3.084 1.68-4.601 1.76-1.358.068-2.136-1.34-3.505-1.485-.63-.062-3.399.963-3.547.364-.32-1.353 2.917-1.703 3.605-1.553 1.892.4 3.243 1.298 5.275 1.02 1.828-.25 3.602-.96 5.34-1.528.416-.133.835-.272 1.252-.408 4.965-2.318 7.305 7.709 12.314 6.73 1.36-.268 2.52-1.009 3.976-.984 1.701.026 2.224 1.018 3.27 2.171.887.985 2.03 1.664 1.918-.195-.073-1.324-1.007-2.8-1.779-3.83-1.082-1.465-2.567-2.512-3.782-3.856-1.493-1.655-2.08-3.767-3.334-5.535-1.23-1.74-2.946-3.07-4.177-4.807-.775-1.091-1.502-2.232-2.035-3.463-.519-1.249-1.202-2.154-1.9-3.3-1.474-2.42-.524-4.763.574-7.084.592-1.246 1.695-2.065 2.857-2.777 1.156-.71 2.316-1.198 1.249-2.655-1.032-1.422-3.037-1.67-4.62-2.023-2.592-.575-3.046-3.836-5.61-4.413-1.478-.326-2.244-.492-3.067-1.852-1.264-2.098-1.606-4.692-2.733-6.881-1.146-2.205-2.69-2.853-4.236-4.812-1.234-1.566-4.473-3.94-6.247-4.8-2.117-1.025-2.758-.55-4.803-1.677-2.382-1.313-4.496-1.415-7.085-2.041-1.968-.481-3.931-3.99-5.783-4.723-1.305-.517-1.649-.077-2.762.433-1.027.463-1.653-.096-1.573-1.203.14-1.916.85-3.755-.65-5.366-1.133-1.229-3.11-1.923-3.946-3.358-1.21-2.09-2.258-4.321-2.906-6.704-.586-2.138.155-5.095-.708-7.054-.437-.998-1.508-1.336-2.096-2.218-.592-.89-.668-2.134-1.167-3.117-.918-1.804-2.14-3.368-2.928-5.26-.965-2.305-.865-4.62-1.453-6.976-.561-2.22-1.932-3.814-1.932-6.172.009-1.24.188-2.16-.153-3.323-.289-.971-1.052-1.801-1.18-2.83-.311-2.416.68-4.645-.027-7.203-.297-1.083-.934-1.897-1.395-2.906-.52-1.125-.417-2.225-.91-3.352-1.03-2.378-3.327-2.67-5.1-3.977-.406-.298-.767-.883-1.078-1.27-.14-.166-1.586-.261-1.992-.592-.559-.461-.927-1.144-1.437-1.652-1.38-1.373-2.28-2.571-3.164-4.333-1.16-2.313-3.043-4.221-4.645-6.222-1.46-1.819-2.48-3.736-3.76-5.63-1.338-1.983-3.376-1.333-5.426-1.688-2.566-.46-4.625-2.294-6.859-3.503-1.901-1.03-4.58-1.096-6.218-2.482-1.66-1.411-2.507-2.653-4.816-3.117-2.453-.488-5.306-.495-6.999 1.635-1.492 1.87-1.998 3.977-4.265 5.14-2.296 1.176-4.985 1.446-7.47.838-2.564-.632-5.18-.763-7.788-1.169-2.589-.401-5.093-1.466-7.702-1.657-1.35-.093-2.955.211-4.208-.423-.74-.378-1.185-1.025-1.752-1.609-.828-.852-1.902-1.482-2.887-2.147-.5-.342-2.114-1.764-1.497-2.536.632-.783 1.99 1.558 2.263 1.948.725 1.05 1.433 1.342 2.662 1.606 2.422.526 5.026.093 7.214 1.418 1.364.816 2.68 1.433 4.312 1.43 1.784-.002 2.973-1.48 4.585-1.532 1.702-.058 3.241-.983 4.3-2.299.758-.94.98-1.81 1.406-2.919.528-1.38 1.557-2.038 2.578-3.046 1.126-1.107 1.985-2.826 3.331-3.66 1.964-1.211 3.619-.206 5.582.169 2.857.539 5.987-1.67 7.861-3.534.637-.639 2.152-1.453 2.494-2.296.823-2.056-2.693-3.547-4.053-4.18-1.127-.52-2.265-.829-3.498-1.026-1.09-.173-.954-2.385-.97-3.137-.022-1.118.368-3.54-1.22-3.698-.876-.089-2.105.433-2.977.612l-2.416 1.38-3.039 1.25-3.977 2.96-2.873 1.56-4.146-1.014h1.872l3.587-1.95 2.26-3.274s3.005-2.23 3.04-2.26c.626-.464 2.562-.078 3.36-.264.555-.129 1.046-.5 1.6-.608.577-.111 1.136.117 1.708.03.675-.095.723-.403 1.183-.833.645-.601 1.555-.628 2.375-.777.919-.162 1.73-.499 2.591-.86 1.458-.613 2.709-1.5 3.605-2.818.863-1.268 2.403-2.114 3.13-3.402.63-1.11-.448-1.922.031-3.042.97-2.24 3.585-2.624 4.102-5.295.226-1.18-.455-2.586-.118-3.665.282-.9 1.966-2.051 2.653-2.772 1.25-1.31 2.693-2.403 3.998-3.652 1.446-1.38 1.992-3.159 2.55-5.015.292-.959.748-2.24.84-3.215.126-1.255-.524-2.593-.1-3.822.35-1.06 1.579-2.112 2.167-3.097 1.362-2.262 2.136-4.725 2.023-7.38-.169-3.66-.639-7.056 1.087-10.466 1.065-2.098 2.904-3.53 4.17-5.457 1.296-1.98 2.478-4.454 2.787-6.819.17-1.302-.346-2.203-.744-3.387-.354-1.054-.204-1.975-.268-3.062-.1-1.819-1.231-5.188-2.673-6.397-1.533-1.296-4.18-2.2-6.058-2.813-1.147-.377-2.29-.859-3.507-.768-7.19.537-13.767 1.804-20.957.051-4.237-1.033-7.677-.596-11.655.897-3.855 1.444-7.688-1.223-11.216-2.476-1.865-.665-4.339-1.238-6.153-.106-1.746 1.08-1.908 3.42-3.487 4.634-1.715 1.326-3.567.257-5.46.224-2.036-.031-2.71 1.561-3.864 2.946-2.806 3.385-7.87-.047-10.537 3.263-1.275 1.577-1.865 3.043-3.682 4.223-.346.22-.97.613-1.595.897-1.045.479-1.95 1.222-3.01 1.665-.318.134-.622.22-.921.269-.73.126-1.435.046-2.245-.027-.954-.084-1.959-.053-2.915-.017-.421.015-.856.137-1.253.05.328-.41.88-.747 1.333-1.049.894-.588 1.837-1.42 2.895-1.697 1.047-.275 2.063.422 3.088.127.523-.151 1.1-.735 1.555-1.04.441-.305.852-1.287 1.218-1.715.579-.686 1.22-1.311 1.874-1.921.817-.757 5.96-4.577 5.049-5.999-.348-.539-2.686.344-3.336.235l-1.586-.261c-.51-.085-2.84.499-3.22.878l-2.501 2.666c-1.633 1.283-3.266 2.565-4.898 3.85l1.466-3.348 2.107-2.194c1.01-1.05 1.724-2.587 2.99-3.363 1.254-.761 2.731-.016 4.051-.455 1.393-.463 2.278-1.684 3.261-2.702l2.64-.528.994 2.565c1.269-1.666 2.624-3.277 3.837-4.996 1.185-1.677 3.024-3.319 3.439-5.404.488-2.455-1.44-1.872-2.7-.72-1.422 1.306-2.078 2.35-4.146 2.215-1.673-.104-3.363-.022-5.022-.148-1.058-.078-5.681-.934-5.979-2.176-.186-.76 4.697-.577 5.522-.69 1.32-.191 2.577-.568 3.822-1.032.938-2.307-1.464-2.74-2.008-4.383-.725-2.156 4.88-1.895 6.019-2.358 1.517-.624 2.005-1.518 2.555-2.935.954-2.418 3.55-3.955 5.58-5.408 1.168-.839 2.326-1.349 3.225-2.511.752-.979 1.619-1.633 2.61-2.35 2.006-1.442 2.199-3.378 3.355-5.392.705-1.227 1.584-2.886 2.828-3.658.652-.409 1.582-.564 2.3-.848a15.435 15.435 0 0 0 2.372-1.131c1.129-.69 1.805-1.965 2.464-3.061.748-1.25 1.55-2.438 2.236-3.725.615-1.156 1.291-2.524 1.103-3.873-.1-.723-.51-1.338-1.076-1.786-2.997-2.345-.142-5.974 1.442-8.51.727-1.157 1.879-3.156-.013-3.828-1.378-.484-3.088.224-4.612-.21-1.78-.518-2.784.556-4.444.452-1.115-.069-2.65-1.932-3.709-.876-1.08 1.078 1.91 2.107 3.008 3.278.366.393-.064 1.464-.308 1.697-1.233 1.165-6.287-1.4-7.626-1.754-2.376-.635-4.48-.553-6.65.725-1.032.608-1.787 1.482-2.814 2.118-1.55.963-3.065.73-4.882.653-1.793-.087-3.5-.098-4.39-1.826-1.702-.426-1.263 1.74-2.22 2.29-.695.399-1.669-.347-2.472-.054-.65.237-1.282 1.054-1.901 1.41-1.409-.4-1.426.52-2.212 1.239-1.036-.114-1.888-1.087-2.999-.808-.85.213-1.735 1.291-2.311 1.968-.934 1.098-1.6 4.1-3.492 3.962-.768-2.185 2.453-2.922 2.602-4.683.158-1.817-2.462-2.8-3.764-3.385-2.024-.9-2.736-.362-3.095 1.832-.273 1.675-1.54 2.422-2.578 3.676-.355.428-1.184 1.732-1.92 1.397-.8-.366-.158-1.555.214-1.996.977-1.174 2.78-1.704 1.917-3.68-.634-1.451-2.575-2.802-4.133-2.767-1.173 1.584-1.634-.654-2.258-1.178-.42-.35-1.144-.288-1.637-.417-1.06-.275-2.218-1.122-3.283-1.186-1.142-.074-1.997.905-2.283 1.963-.636 2.322 1.08 3.143-1.47 4.523-1.562.839-2.212 1.648-1.709 3.463.329 1.184 1.414 1.109 1.82 2.072.5 1.195-1.005 1.313-.899 2.542.073.907 1.127 1.335 1.114 2.227-1 .355-1.316-.805-2.194-.86-.872-.054-1.274.72-1.613 1.395-.763 1.54-.805 3.352-.089 4.904.526 1.136 2.416 2.917 1.023 4.031-1.213.972-3.534.14-4.942.717-1.02.423-1.254 1.162-2.392.474-.867-.514-2.183-1.879-2.61-.545-.36 1.146.993 2.349 1.503 3.21.568.949 1.027 2.036 1.533 3.02.568 1.092 1.959 1.516 1.642 2.656-.18.663-.653 1.098-.792 1.881-.118.692.006 1.316-.59 1.84-1.22 1.064-2.4-.165-3.47-.722-1.178-.612-3.225-.83-2.617 1.098.17.526.64 1.016.847 1.566.222.588.162 1.274.643 1.762.43.435 1.107.361 1.58.705.463.348.588.848.967 1.258 1.273 1.369 3.285 1.919 4.632 3.223.725.695.827 1.08.93 1.983.084.746-.298.637.34 1.409.46.559 1.239.812 1.711 1.38.588.692 1.735 1.883 1.813 2.755-.766-.182-.959-1.06-1.529-1.544-.703-.592-1.601-.819-2.356-1.311-1.586-1.032-2.466-1.863-4.319-.94-.448-.269-.918-.522-1.444-.6-.561-.077-.845.244-1.38.315-.457.058-1.031.067-1.442.291-.414.235-.73.61-1.135.845-.284 1.236-.661 2.94-2.22 2.108-1.571-.841-.489-2.543-1.476-3.559-.8-.825-2.76-.448-3.467.327-.876.956-.64 2.422-.147 3.496.593 1.308 1.992 1.79 2.38 3.245-.716 2.043-2.992 2.17-3.096-.242-.093-2.005.878-3.545-1.813-4.015-4.722-.832-4.305 4.658-3.717 7.775.448 2.365 2.706 2.72 4.607 3.685-.83 1.508-1.746.006-2.873.426-.834.31-1.071 1.58-1.342 2.32-.366 1.02-.798 2.059-.28 3.121.387.783 1.252 1.18 1.702 1.928.435.73.437 1.77 1.147 2.314.408.31.792.352 1.154.752.339.359.68.847 1.2.947.747.149 1.743-.275 2.513-.32.548-.03 3.11-.237 2.826.855-.31 1.184-2.724.534-3.52.605-.885.071-1.504.899-2.37.273-.885-.641-1.428-1.544-2.4-2.119-.814-.483-1.737-1.246-2.742-1.19-1.304.072-1.495 1.295-1.601 2.353-.091.963-.566 1.812-.668 2.773-.122 1.122.096 2.165.61 3.159.506.978.765 1.792.954 2.875.12.707.417 1.24.337 1.976-.144 1.229-.035 3.811 1.78 3.53 1.738-.271 2.632-1.91 3.782-3.029.401-.397 1.126-1.51 1.732-1.55.77-.058.703.96.606 1.477-.11.537-.46 1.318.206 1.662.61.308 1.566-.369 2.039-.703.67-.473.927-1.158 1.486-1.72.463-.454 1.863-1.24 2.387-.499.672.963-.974 2.367-1.677 2.715-.936.462-2.19.886-3.23 1.005-.945.109-1.892-.244-2.829 0-.79.207-1.816.777-2.331 1.409-.561.694-.386 1.546-.2 2.356.291 1.27 1.502 1.317 2.662 1.317 1.258 0 2.494-.073 3.738-.128.737-.033 1.227-.4 1.813-.85.45-.36 1.193-.925 1.794-.463.5.381 0 .976-.275 1.353-.377.519-.441.874.005 1.402.579.685 2.36 2.267.82 2.757-2 .634-2.378-2.027-4.13-2.036-1.01-.005-2.43.494-3.044 1.362-.696.991-.66 2.24-.355 3.356.24.883.067 2.165.755 2.853.505.492 1.158.645 1.548 1.289.424.705.577.978 1.504.945.967-.034 1.855-.713 2.793-.661.539.028 1.963.559 1.814 1.282-.21 1.005-2.304 1.036-3.02.985-.46-.034-.92-.131-1.376-.047-.346.056-.661.244-1.025.215-.976-.086-1.442-1.255-2.234-1.69-1.446-.803-3.68-.237-4.89.78-.614.515-1.075 1.487-1.377 2.217-.357.863-.153 1.606.697 2.036.599.302 1.229.435 1.7.954.42.477.467 1.145.88 1.617 1.111 1.267 3.243.133 4.576.732 1.036.464 1.191 1.464-.086 1.566-1.13.087-2.28-.252-3.288-.734-1.95-.92-3.807-3.41-6.189-2.05-.575.329-.705.799-1.014 1.298-.352.73-.428 1.47-.534 2.26-.102.83-.462 1.525-.71 2.31-.402 1.289-.428 2.697.967 3.347.497.227.94.22 1.448.078.513-.142 1.028-.082 1.527-.26.6-.208.978-.197.772.566-.133.475-.533 1.111-.253 1.613.364.654 1.047.055 1.513-.036.758-.153.39 1.078-.007 1.278-1.502-.029-3.299-.355-4.685.375-1.371.723-.836 1.624-.572 2.804.255 1.131.164 3.571-1.562 2.633-.816-.448-1.469-1.211-2.358-1.535-.763-.28-1.32.07-1.981.432-.863.48-1.741.68-2.73.675-.964-.005-1.964-.193-2.907.035-1.03.242-2.775 1.276-3.29 2.252-.663 1.293.16 3.483 1.737 3.494.897.01 1.74-.446 2.63-.508.727-.053 1.204.26 1.83.552 1.383.646 2.974.06 4.447.229.92.097 1.837.217 2.76.301.43.04.944.014 1.315.255.592.393.109 1.21-.067 1.713-.173.504-.301.84-.905.621-.89-.326-1.604-.903-2.575-1.058a4.28 4.28 0 0 0-1.664.102c-1.06.257-1.504 1.34-1.404 2.391.137 1.498 1.393 2.571 2.529 3.361.747.512 1.588.876 2.376 1.307.368.19.74.357 1.095.565.324.191.595.5.943.615.772.26 1.706-.264 2.325-.663.537-.347.581-.016.563.512-.013.426.027.79.34 1.125.827.89 2.078 1.663 3.325 1.615 1.247-.047 2.307-.79 3.237-1.555 1.52-1.263 2.781-3.009 3.908-4.608.306-.43.51-.963.894-1.362.721-.754 1.724-1.378 2.585-1.979.426-.295.911-.663 1.19-1.091.316-.49.389-1.111.702-1.606.521-.816 1.349-1.231 2.207-1.613.805-.348 1.823-.878 2.01-1.812.128-.597-.089-1.458.35-1.939l1.502-.954 1.21-1.129 1.323-.859 2.303-2.883-1.247 2.143-1.013 1.792-1.522 1.988-1.103 1.286c-.1.637-.505 1.127-.805 1.684l1.517.421 2.22 1.52" style="fill:none;stroke:#31363f;stroke-width:1.41px;stroke-linecap:round;stroke-linejoin:round" fill="#24623E"></path><path d="M313.365 575.929c-.277 3.116-4.718 5.43-7.163 3.163-1.036-.958-2.174-1.764-3.447-2.376-2.063-1.005-3.538-3.048-5.992-2.722-.763.096-2.786.863-3.476.284-.765-.65.504-1.388 1.065-1.719 1.761-1.034 3.96-1.657 5.872-2.409.978-.382 2.107-.668 2.924-1.355.678-.57.922-1.427 1.535-2.03 1.595-1.608 3.22.204 4.847.68 1.854.551 3.782-.121 5.454 1.13.985.734 2.982 2.666 1.82 3.902-.633.659-1.77.694-2.498 1.231-.797.59-.863 1.293-.94 2.22l-.001.001ZM86.521 211.425c.435-.779 2.384-2.03 1.774-3.101-.712-1.265-2.997.23-3.6.865-1.071 1.129-1.156 2.67-1.912 3.962-.592 1.011-2.29 2.737-3.647 2.165-1.533-.65-.44-3.128.035-4.135.675-1.433 1.336-2.551 1.363-4.182.024-1.453-.307-3.456.87-4.583 1.09-1.04 2.934-.674 4.305-.82 1.406-.147 2.427-.642 3.414-1.646 1.39-1.425 5.113-5.096 5.222-.877.07 2.733.67 5.269 1.777 7.8 1.393 3.185 3.64 6.746.8 9.98-1.095 1.245-2.506 1.293-4.032 1.506-1.627.222-2.343.912-3.16 2.287-.663 1.12-1.648 2.813-3.18 1.893-1.265-.763-1.673-2.89-.746-4.035.413-.506 1.05-.768 1.65-.979.18-.064.943-1.173 1.006-1.384.283-1.005-.173-1.854-.87-2.438-.752-.63-1.708-1.16-1.07-2.278h.001Zm14.337-17.074c-.477-1.232-1.231-1.673-.786-3.21.648-2.236 3.11-4.366 5.005-5.62 1.69-1.11 4.63-5.035 6.939-3.555 1.799 1.155.175 3.316-.879 4.321-1.517 1.453-2.291 2.345-2.812 4.432-.526 2.07-1.154 3.842-2.343 5.621-1.83 2.744-4.037 5.777-5.036 8.925-.379 1.202-.83 3.671-2.6 3.16-1.523-.434-2.178-2.983-2.56-4.278-.592-2.026-.88-4.306.466-6.09 1.048-1.382 5.176-2.238 4.606-3.706Zm-4.8-65.807c.498-.3.73-.956.862-1.486a4.53 4.53 0 0 0 .131-.936c.011-.388-.044-.532-.282-.847-.113-.145-.202-.344-.359-.464-.34-.273-.923-.206-1.282-.024-1.296.66-3.002 2.176-1.65 3.633.627.668 1.816.568 2.58.124Zm-15.116 17.614c-.994.747-1.955 1.557-2.818 2.451-.374.382-.665.89-1.051 1.233-.355.324-.9.426-1.342.57-.688.222-1.89.69-2.613.54-.522-.114-.486-.724-.202-1.136.523-.752 1.158-1.353 1.801-2.006.353-.361.528-.736.757-1.18.275-.523.68-.89 1.11-1.282.89-.803 1.72-1.628 2.705-2.311.677-.466 1.289-1.078 2.125-1.225.746-.126 1.597-.015 1.48.899-.169 1.242-.954 2.697-1.952 3.447Zm-15.364 7.316c.532-.04 1.027-.167 1.533-.322.86-.255 1.679-.696 2.557-.898.326-.074.96-.309 1.285-.209.284.087.295.477.261.734-.042.373-.31.542-.61.746-.423.297-.854.597-1.282.907-.832.597-1.655 1.207-2.416 1.903-1.102 1.005-.703 3.41-2.784 3.062-1.488-.242-2.959-2.629-2.879-4.075.127-2.214 2.804-1.735 4.335-1.848ZM91 119.829c-.034 1.033.29 2.145-.014 3.159-.137.48-.41.842-.874 1.051-.488.224-1.433.599-1.947.386-.426-.18-.852-.595-1.194-.9-.716-.63-1.307-1.385-1.883-2.132-1.187-1.527-1.766-2.3.004-3.61 1.322-.971 2.025-2.182 3.853-1.572 1.68.567 2.117 1.967 2.055 3.618Zm-46.554-4.446c.823-.049 1.344.863 1.704 1.464.399.652 1.158 1.509.876 2.334-.111.313-.26.608-.44.883-.39.568-.933 1-1.501 1.373-.865.561-2.94 1.54-3.98 1.076-1.426-.635.457-3.241.965-4.095.448-.763 1.384-2.98 2.376-3.035Zm1.95-11.191c.029 1.14.044 2.28.193 3.414.14 1.02.388 1.741.79 2.69.188.422.308.821.814.941.834.2 1.641-.523 2.493-.37.823.15 2.35 1.63 3.03.246.648-1.311-1.32-1.843-1.717-2.658-.43-.887.666-1.963.455-3.03-.182-.923-1.182-1.47-1.233-2.449-.036-.692.53-.694 1.053-.803.78-.162 1.003-.641 1.2-1.384.302-1.167.959-1.458 1.553-2.41.606-.966-.037-1.483-.625-2.255-.601-.785-.688-1.522-1.025-2.427-.473-1.289-2.236-3.63-3.818-3.259-2.336.553-1.555 3.483-2.003 5.127-.264.99-.894 1.799-1.156 2.793-.29 1.111-.401 1.983-1.535 2.537-.144.877.573.95 1.043 1.458.532.583.468 1.125.488 1.839Zm6.116-19.874c-.761-1.249-2.334-.978-3.523-.49-.532.22-1.397.583-1.613 1.138-.084.024-.2.053-.28.1-.611 2.273 1.3 2.375 2.674 3.267 1.375.89 2.025 2.371 4.048 1.657.4-.142.821-.346 1.09-.688.12-.155.217-.35.23-.543.016-.277-.153-.355-.317-.541-.253-.284-.583-.462-.838-.757a3.433 3.433 0 0 1-.56-.95c-.306-.736-.496-1.505-.911-2.193Zm4.044-11.09c1.22.435 1.48 2.124 2.921 2.057 1.336-.058 1.753-1.444 1.019-2.425-.768-1.011-2.075-1.348-2.849-2.422-1.1-1.524-1.52-1.127-3.092-.455-.757.32-1.941 1.67-2.855 1.27-.266-.116-.204-.376-.44-.533-.299-.207-.878-.189-1.222-.162-.556.04-.747.404-1.215.65-.905.479-1.983.204-2.957.392-1.351.262-1.768 1.447-2.263 2.59-1.147 2.632.905 3.349 3.015 4.305 1.912.863 3.072 2.276 4.44 3.793.82.914 1.782 1.333 3.016 1.493 1.38.189 1.85-.412 2.81-1.264.424-.38 1.131-.766 1.302-1.338.158-.506-.224-.918-.17-1.4.1-.85 1.601-1.868 1.25-2.702-.177-.412-.876-.712-1.208-1.011-.395-.348-.81-.679-1.09-1.131-.33-.53-.49-1.08-.412-1.706v-.001Zm18.793-14.23c.08.876-1.302 1.28-1.91 1.61-.408.225-.82.66-1.226.835-.497.215-1.063-.067-1.535.366-.14.133-.207.388-.378.523-.17.136-.423.147-.603.255-.404.242-.723.544-.914.968-.293.632-.501 1.224-1.113 1.634-.506.34-.983.721-1.396 1.16-.377.391-.69.682-1.266.697-1.491.067-2.906-2.73-3.754-3.769-1.082-1.333-2.948-2.997-2.365-4.849 1.768-.215 1.92 1.883 3.616.326.936-.856 2.354-1.39 2.762-2.55.561-1.59.885-2.12 2.79-2.17.69-.02 1.78.43 1.884-.633.102-1.027-1.184-1.131-1.852-1.295-1.662-.422-3.299-1.145-4.91-1.768-1.734-.67-1.925-1.66-3.134-2.933-.534-.554-3.239-2.309-.82-2.586 1.694-.198 1.246 2.218 3.18 1.408 1.864-.778 1.116-1.792.176-2.994-1.178-1.507-1.91-3.221-2.245-5.125-.178-.965-.025-3.41.594-4.208.422-.541 1.218-.357 1.64-.883.534-.68-.178-1.757.268-2.362.595-.812 3.208-.162 3.907.41 1.069.87 1.612 2.425 2.686 3.392-.49.75-.06 2.06.523 2.638.646-1.143.724-3.9.287-5.058-.207-.553-1.143-2.014-.528-2.66.812-.847 1.308.703 1.976.947 1.686.617 1.072-1.923 1.007-2.762-.124-1.599.12-2.848 1.797-3.451 2.252-.81 4.386-1.118 6.515-2.347 1.884-1.078 3.166-2.44 4.71-3.893 1.515-1.433 3.596-2.141 5.064-3.618.916-.914 1.557-3.026 3.066-3.126 1.794-.12 2.01 2.358 2.34 3.605.415 1.542.976 2.784.422 4.354-.553 1.566-.64 2.3-.597 3.958.058 2.205-1.535 2.73-2.948 4.08-.719.683-1.183 1.563-1.573 2.462-.19.448-.366.907-.557 1.362-.066.184-.124.406-.22.576-.075.125-.237.189-.212.353.073.723 1.415.526 1.832.422.594-.149 1.233-.38 1.757-.728.534-.79 1.54-2.003 2.58-2.023.667-.013 1.195.242 1.049.974-.06.297-.189.619-.32.894-.19.408-.281.758-.405 1.195-.597 2.168-4.055 1.467-5.593 1.327-1.24-.12-2.564-.213-2.75 1.147-.18 1.238.612 2.298-.366 3.427-.47.535-2.248 1.025-2.27 1.89-.022.874 1.726.745 2.116 1.846.595 1.683-.064 2.986-.348 4.536-.581.18-1.142.43-1.748.506-1.067.135-3.105.004-1.965 1.455.805 1.027 1.362 1.58.437 2.706-.717.861-1.737 1.325-2.498 2.134-.9.959-1.977.597-3.04.16-.93-.386-1.25-.696-1.583.386-.133.435-.018 1.176-.52 1.389-.645.277-1.496-.495-1.867-.916-.49-.557-1.005-1.027-1.675-.397-1.065 1.007-.277 2.032.386 2.946.426.585 1.36.927 1.593 1.641.024.071.038.14.044.204Z" style="fill:none;stroke:#31363f;stroke-width:1.41px" fill="#24623E"></path><path d="M83.12 115.645c.38-.759-.22-1.828-1.122-2.081-.85-.235-1.775.765-2.563.945-.831.189-1.885.069-1.892 1.003-.01 1.588 1.484 1.317 2.573 1.018.797-.22 1.84.031 2.565-.42.206-.128.35-.288.44-.465h-.001Zm19.317-32.742c.018.454.342.971.226 1.421-.157.615-.77.62-1.038 1.145-.228.444-.093.978-.042 1.422.002.08-1.664.237-1.839.404-.76.714-.838 1.834-.641 2.804.14.665.728 1.12.9 1.757.198.718-.212 1.202-.279 1.9-.053.553.198 1.325.581 1.738.763.82 2.035.037 2.454-.763.62-1.192-.612-2.228-.484-3.428.118-1.109.167-2.236.679-3.252.92-1.821 1.353-3.853 1.68-5.856.168-1.032.856-2.467.148-3.47-.907-1.275-1.735 1.52-1.901 2.063-.209.675-.455 1.378-.444 2.115Zm2.032 13.635c-.475-.104-1.043-.03-1.708.103-1.677.337-.521 2.555.166 3.187.677.626 1.693 1.045 2.465.266.592-.594.645-1.444.373-2.202-.304-.848-.735-1.227-1.296-1.354Zm-9.902 86.557a.296.296 0 0 0-.12-.087c-.608-.26-1.546.54-2.014.832-.841.528-1.828.601-2.396 1.489-.64 1.002-.504 2.278-.52 3.41-.01.882-.301 1.847-.033 2.719.449 1.453 2.055.2 2.274-.732.333-1.411.677-2.835 1.298-4.157.297-.63 2.083-2.829 1.51-3.474h.001Zm28.183-30.052c-.006-.026-.018-.05-.026-.075-.344-.843-2.49 2.336-2.58 2.449-.557.7-1.555.572-2.072 1.357-.508.772-.976 2.847.412 2.075.706-.389 1.216-1.103 1.755-1.726.621-.723 1.45-1.072 2.079-1.726.556-.577.7-1.61.432-2.354Zm-8.063 16.489c-.484-.051-.834.14-.857.954-.017.59.322 1.129.36 1.715.08 1.244-.837 2.457-.621 3.713.142.83.277 4.483 1.825 2.7.293-.333.315-.943.357-1.36.178-1.69.127-3.319.375-5.018.184-1.253.091-2.54-1.44-2.704h.001Zm-2.937 5.92c-.53.08-.968.549-.808 1.303.073.34.47.439.52.82.088.717-.5.983-.908 1.425-.52.565-.92 1.477-.322 1.947.43.34 1.77.251 2.265.036.92-.395.797-1.486.701-2.303-.097-.812.198-1.856-.237-2.602-.29-.499-.781-.69-1.211-.625v-.001Zm-1.16 36.567a.96.96 0 0 0-.225.1c-.395.257-.632.892-.814 1.302-.712 1.6-1.384 4.446-.15 5.943.554.672 1.508-4.11 1.566-4.25.315-.754 1.426-3.723-.378-3.095h.001Zm-18.92-56.256c-.617.002-1.245.082-1.848.11-.382.019-1.019-.212-1.391-.035-.548.264-.652.994-.14 1.511.397.4 1.025.384 1.533.52.958.252 1.9 1.022 2.901 1.044 1.076.02 1.462-.743 2.114-1.455.151-.167-1.158-1.211-1.28-1.28-.587-.329-1.23-.415-1.89-.415h.001Zm22.54 4.23c-.255-1.025-2.015-1.912-2.833-2.442-.99-.639-1.688-1.529-2.715-2.116-1.367-.772-2.414-.681-3.882-.959-1.13-.215-2.21-1.062-2.849-2.016-.647-.972-.528-2.045-1.333-2.937-.393-.437-.632-.612-.838-1.185-.187-.512-.118-.965-.53-1.38-.313-.312-.85-.417-1.203-.694-.452-.364-.736-.92-1.22-1.251-2.134-1.45-4.261.92-5.77 2.132-.787.32-1.703.656-2.429 1.102-.42.253-.907.562-.898 1.112 0 .459.703.814.634 1.257-.137.803-1.39.644-.963 1.822.227.64 1.178 1.131 1.793 1.355 1.715.61 3.471.255 4.938 1.668.563.544.883 1.644 1.664 1.917 1.007.36 1.601-.714 2.41-1.058.533-.227 1.44-.2 1.944.108 1.191.713.608 1.9-.448 2.3-1.617.606-3.432.795-4.84 1.909-.883.696-1.447.962-1.84 1.956.03.005.085.084.08.073-.727.575-1.47 2.673-.634 3.463.82.77 2.937-.13 3.92-.07-.226.174-.464.33-.712.47-1.225.667-3.226 1.204-4.614 1.31-1.566.111-3.607-1.406-5.047-.317-1.34 1.012-.404 3.363.446 4.404 1.131 1.397 2.941 1.344 4.545.894 2.937-.821 6.132-1.387 8.924-2.638 1.02-.45 2.658-2.334 3.778-2.083 1.358.302 1.509 2.467 3.219 1.575.699-.357 1.249-1.036 1.934-1.449.648-.383 1.409-.636 1.89-1.244.484-.608.624-1.338.985-1.977.342-.603.972-.516 1.542-.794.615-.295.48-1.078.426-1.679-.038-.46-.016-.867.157-1.282.182-.426.493-.759.369-1.256ZM8.2 52.399c-.89.434-1.222 1.284.142 1.384.892.066 1.2-2.034-.142-1.384Zm-3.025 2.804c-.277.006-.565.06-.8.053-.584-.02-.826-.593-1.334-.77-.798-.275-1.315.421-1.435 1.131-.133.786 1.058 1.75 1.604 2.128 1.07.736 1.644.286 2.507-.568.432-.426.645-1.211.186-1.726-.184-.209-.45-.253-.728-.248Zm51.698 6.295c-.517-.122-1.136-.042-1.6-.038-.259.018-.46.706-.47.917-.024.476.287.969.644 1.26.616.505 1.28.283 1.805-.222.313-.3.655-.883.44-1.318-.171-.348-.473-.521-.819-.599ZM41.205 78.537c-.253.055-.566.315-.903.435-.525.184-.43-.253-.765-.397-.402-.173-1.267.166-1.637.317-.53.217-.803.787-.462 1.33.258.411.85.487 1.29.507.305.008.634-.18.935-.136.43.065.7.47 1.187.322.666-.21.967-1.065.859-1.721-.096-.577-.273-.706-.504-.657Zm49.646-24.516c-.313-.286-2.001.162-2.021.46-.02.301 1.218 1.24 1.247 1.149 0 .002-.298.951-.12.951.177 0 .82-.758.834-.772.739-.874 1.014-.896.06-1.788ZM91.811 130.412c-.292.051-.512.253-.792.526-.228.222-.468.759-.279 1.051.235.369 1.116.797 1.544.642.17-.065 1.384-1.054 1.298-1.203-.375-.67-.641-.834-1.385-.998a1.01 1.01 0 0 0-.386-.018Zm27.816 12.163-4.887.546-2.988-1.764-2.1.812-2.756 1.74 12.73-1.334h.001Z" style="fill:none;stroke:#31363f;stroke-width:1.41px;stroke-linecap:round;stroke-linejoin:round"></path><path d="M80.094 43.308c-1.324 0-1.69.799-2.407 1.73-.496.65-1.377 1.21-1.674 1.975-.422 1.071.69 2.861 1.087 3.822.403.98.71 1.584.76 2.66m50.722 77.435 2.028.7 2.455-.466 1.637.661.972.819 1.524.08-8.616-1.795v.001Zm4.91-71.155-2.483-1.715-1.475-1.18-.839-1.152 4.796 4.047h.001Zm-10.72-9.286c-.772.168-.74.77-.441 1.357.355.695.965.455 1.417.007.708-.699.262-.996-.55-1.284-.206-.071-.313-.105-.426-.08Zm-.79 153.12-1.168 2.725-1.298 1.231-2.844 2.451 5.31-6.406v-.001Zm-4.54-6.166-2.077 1.233-1.17 1.429 3.247-2.662Zm-16.804-33.15-1.493.647-2.777 1.118 4.27-1.766v.001ZM58.71 64.782a2.657 2.657 0 0 0-.575-.068c-1.306 0-2.003 1.615-1.814 2.742.166.978 1.626 2.877 2.45 1.364.42-.77.569-1.666.995-2.425.494-.898-.262-1.435-1.056-1.612v-.001Zm6.211-13.245-.066-.033c-.808-.353-1.882.825-2.312 1.37-.621.79.497 2.297 1.369 2.425 1.118.162 1.752.353 1.748-1.027-.002-.656-.062-2.351-.739-2.735Zm99.826 2.76 2.247 1.843.08 1.921 3.028 1.134-5.355-4.898Zm-28.206-26.054 1.232 1.324 2.839.805 1.988-.426 2.79.189-8.849-1.892Zm8.046 4.59-1.23-.992-1.656-1.66 2.886 2.651v.001Z" style="fill:#24623E;stroke:#31363f;stroke-width:1.41px;stroke-linecap:round;stroke-linejoin:round"></path></g></svg>